<?xml version="1.0" encoding="UTF-8" standalone="no"?> <!-- Created with Vectornator for iOS (http://vectornator.io/) --><!DOCTYPE svg PUBLIC "-//W3C//DTD SVG 1.1//EN" "http://www.w3.org/Graphics/SVG/1.1/DTD/svg11.dtd">
<svg height="100%" style="fill-rule:nonzero;clip-rule:evenodd;stroke-linecap:round;stroke-linejoin:round;" xmlns:xlink="http://www.w3.org/1999/xlink" xmlns="http://www.w3.org/2000/svg" xml:space="preserve" width="100%" xmlns:vectornator="http://vectornator.io" version="1.1" viewBox="0 0 73.3831 15.4966">
<metadata>
<vectornator:setting key="DimensionsVisible" value="1"/>
<vectornator:setting key="PencilOnly" value="0"/>
<vectornator:setting key="SnapToPoints" value="0"/>
<vectornator:setting key="OutlineMode" value="0"/>
<vectornator:setting key="CMYKEnabledKey" value="0"/>
<vectornator:setting key="RulersVisible" value="1"/>
<vectornator:setting key="SnapToEdges" value="0"/>
<vectornator:setting key="GuidesVisible" value="1"/>
<vectornator:setting key="DisplayWhiteBackground" value="0"/>
<vectornator:setting key="doHistoryDisabled" value="0"/>
<vectornator:setting key="SnapToGuides" value="1"/>
<vectornator:setting key="TimeLapseWatermarkDisabled" value="0"/>
<vectornator:setting key="Units" value="Points"/>
<vectornator:setting key="DynamicGuides" value="0"/>
<vectornator:setting key="IsolateActiveLayer" value="0"/>
<vectornator:setting key="SnapToGrid" value="0"/>
</metadata>
<defs/>
<g id="layer1" vectornator:layerName="layer1">
<path d="M1.92881+13.2265L0+2.51618L2.64848+2.51618L3.54806+8.84502L4.43706+2.51618L7.02998+2.51618L5.10646+13.2265L1.92881+13.2265Z" opacity="1" fill="#eb2d2d"/>
<path d="M13.843+8.68627L10.3029+8.68627L10.3029+11.1866C10.3029+11.5491+10.459+11.7158+10.7659+11.7158C11.0728+11.7158+11.2183+11.5438+11.2183+11.1866L11.2183+9.02494L13.843+9.02494L13.843+11.2051C13.843+12.6418+12.8111+13.3668+10.75+13.3668C8.68892+13.3668+7.67292+12.618+7.67292+11.1231L7.67292+4.70165C7.67292+3.20146+8.68892+2.44211+10.7368+2.44211C12.7847+2.44211+13.8298+3.16706+13.8298+4.61169L13.8298+8.68627M11.2183+7.09877L11.2183+4.64609C11.2183+4.29154+11.0702+4.11692+10.7659+4.11692C10.4616+4.11692+10.3029+4.2889+10.3029+4.64609L10.3029+7.09877L11.2183+7.09877" opacity="1" fill="#eb2d2d"/>
<path d="M14.7479+0L17.3805+0L17.3805+0L17.3805+13.2292L17.3805+13.2292L14.7479+13.2292L14.7479+13.2292L14.7479+0L14.7479+0Z" opacity="1" fill="#eb2d2d"/>
<path d="M18.2113+11.1231L18.2113+4.70429C18.2113+3.20411+19.2696+2.44475+21.3386+2.44475C22.0783+2.43317+22.8081+2.61562+23.4553+2.97392C24.0499+3.29986+24.4055+3.9372+24.3708+4.61434L24.3708+11.2289C24.3708+12.6656+23.3574+13.3906+21.3254+13.3906C19.2458+13.3906+18.198+12.6312+18.198+11.139M21.7461+11.213L21.7461+4.63815C21.7461+4.28361+21.5874+4.10898+21.2937+4.10898C21+4.10898+20.8306+4.28361+20.8306+4.63815L20.8306+11.1972C20.8306+11.5596+20.9867+11.7263+21.2937+11.7263C21.6006+11.7263+21.7461+11.5544+21.7461+11.1972" opacity="1" fill="#eb2d2d"/>
<path d="M25.2069+8.92704L27.8315+8.92704L27.8315+11.1972C27.8315+11.5596+27.9797+11.7263+28.2681+11.7263C28.5565+11.7263+28.7126+11.3797+28.7126+10.6865C28.7126+9.779+28.53+9.20221+28.1675+8.93763C26.797+8.21267+25.9715+7.7179+25.6831+7.42686C25.379+7.06932+25.2279+6.60644+25.2624+6.13834L25.2624+4.69371C25.2624+3.19352+26.2864+2.43417+28.3236+2.43417C30.3133+2.43417+31.3029+3.15913+31.3029+4.60375L31.3029+6.72042L28.7364+6.72042L28.7946+5.43984C28.7946+4.54819+28.6385+4.11692+28.3051+4.11692C27.9717+4.11692+27.8209+4.3815+27.8209+4.95036C27.793+5.40179+27.8662+5.85376+28.0352+6.27327C28.1834+6.56961+28.9851+7.08025+30.4456+7.79992C31.0272+8.18287+31.3726+8.83667+31.3611+9.53294L31.3611+11.1416C31.3611+12.6339+30.3212+13.3932+28.2496+13.3932C26.2202+13.3932+25.2068+12.6656+25.2068+11.2316L25.2069+8.92704Z" opacity="1" fill="#ffffff"/>
<path d="M32.1416+11.1231L32.1416+4.70429C32.1416+3.20411+33.1999+2.44475+35.269+2.44475C36.013+2.43146+36.7475+2.61395+37.3989+2.97392C37.9934+3.29986+38.3491+3.9372+38.3143+4.61434L38.3143+11.2289C38.3143+12.6656+37.3063+13.3906+35.269+13.3906C33.2317+13.3906+32.1416+12.6312+32.1416+11.139M35.6896+11.213L35.6896+4.63815C35.6896+4.28361+35.5335+4.10898+35.2346+4.10898C34.9356+4.10898+34.7742+4.28361+34.7742+4.63815L34.7742+11.1972C34.7742+11.5596+34.9303+11.7263+35.2346+11.7263C35.5388+11.7263+35.6896+11.5544+35.6896+11.1972" opacity="1" fill="#ffffff"/>
<path d="M39.1689+0L41.7936+0L41.7936+0L41.7936+13.2292L41.7936+13.2292L39.1689+13.2292L39.1689+13.2292L39.1689+0L39.1689+0Z" opacity="1" fill="#ffffff"/>
<path d="M45.2729+1.93146L42.6429+1.93146L42.6429-5.96046e-07L45.2729-5.96046e-07L45.2729+1.93146ZM45.2729+13.2292L42.6429+13.2292L42.6429+2.51619L45.2729+2.51619L45.2729+13.2292Z" opacity="1" fill="#ffffff"/>
<path d="M52.5621+13.2292L49.6358+13.2292L49.6358+4.63815C49.6358+4.30742+49.4877+4.14338+49.1834+4.14338C48.8791+4.14338+48.7389+4.30213+48.7389+4.61434L48.7389+13.2292L46.1142+13.2292L46.1142+2.51619L48.7389+2.51619L48.7389+2.87867C49.0855+2.59027+49.6305+2.44211+50.3555+2.44211C50.825+2.43671+51.2856+2.57118+51.6784+2.8284C52.0832+3.09298+52.5754+3.4634+52.5754+3.96611L52.5621+13.2292Z" opacity="1" fill="#ffffff"/>
<path d="M53.594+15.4966L53.594+13.9462L55.7318+13.9462C56.351+13.9462+56.6632+13.6234+56.6632+12.9805C56.3192+13.245+55.7715+13.3773+55.0386+13.3773C54.5571+13.3879+54.0849+13.2432+53.6919+12.9646C53.3306+12.7278+53.1159+12.3223+53.123+11.8904L53.123+4.18836C53.123+3.01537+53.8224+2.42976+55.2212+2.43152C55.7379+2.47494+56.2372+2.63897+56.679+2.91042L57.0177+2.50561L59.2667+2.50561L59.2667+13.0784C59.291+13.6792+59.152+14.2753+58.8645+14.8034C58.584+15.2665+57.7347+15.4966+56.306+15.4966L53.594+15.4966M56.6632+11.3321L56.6632+4.59581C56.6632+4.26509+56.5071+4.10898+56.2107+4.10898C55.9144+4.10898+55.7477+4.26509+55.7477+4.59581L55.7477+11.3056C55.7477+11.6258+55.9038+11.7925+56.2107+11.7925C56.3381+11.8073+56.465+11.7617+56.5538+11.6692C56.6426+11.5768+56.6831+11.4482+56.6632+11.3215" opacity="1" fill="#ffffff"/>
<path d="M66.3152+8.68627L62.783+8.68627L62.783+11.1866C62.783+11.5491+62.9312+11.7158+63.2354+11.7158C63.5397+11.7158+63.6879+11.5438+63.6879+11.1866L63.6879+9.02494L66.3125+9.02494L66.3125+11.2051C66.3125+12.6418+65.2807+13.3668+63.2195+13.3668C61.1584+13.3668+60.1583+12.6074+60.1583+11.1151L60.1583+4.70165C60.1583+3.20146+61.1823+2.44211+63.2195+2.44211C65.2568+2.44211+66.3125+3.16706+66.3125+4.61169L66.3125+8.68627M63.6905+7.09877L63.6905+4.64609C63.6905+4.29154+63.5423+4.11692+63.2381+4.11692C62.9338+4.11692+62.7856+4.2889+62.7856+4.64609L62.7856+7.09877L63.6932+7.09877" opacity="1" fill="#ffffff"/>
<path d="M73.361+13.2292L70.7284+13.2292L70.7284+4.63815C70.7284+4.30742+70.5723+4.14338+70.2733+4.14338C70.146+4.1286+70.0191+4.1742+69.9303+4.26663C69.8415+4.35907+69.801+4.48771+69.8209+4.61434L69.8209+13.2292L67.2042+13.2292L67.2042+2.51619L69.8288+2.51619L69.8288+2.87867C70.1834+2.59027+70.7178+2.44211+71.456+2.44211C71.9253+2.43891+72.3852+2.5732+72.7789+2.8284C73.1691+3.07237+73.3992+3.50625+73.3822+3.96611L73.361+13.2292Z" opacity="1" fill="#ffffff"/>
</g>
</svg>
