<?xml version="1.0" encoding="UTF-8" standalone="no"?>
<!-- Created with Inkscape (http://www.inkscape.org/) -->

<svg
   xmlns:dc="http://purl.org/dc/elements/1.1/"
   xmlns:cc="http://creativecommons.org/ns#"
   xmlns:rdf="http://www.w3.org/1999/02/22-rdf-syntax-ns#"
   xmlns:svg="http://www.w3.org/2000/svg"
   xmlns="http://www.w3.org/2000/svg"
   xmlns:sodipodi="http://sodipodi.sourceforge.net/DTD/sodipodi-0.dtd"
   xmlns:inkscape="http://www.inkscape.org/namespaces/inkscape"
   width="73.383072mm"
   height="15.496648mm"
   viewBox="0 0 73.383072 15.496648"
   version="1.1"
   id="svg3920"
   inkscape:version="0.92.3 (2405546, 2018-03-11)"
   sodipodi:docname="velosg.svg">
  <defs
     id="defs3914" />
  <sodipodi:namedview
     id="base"
     pagecolor="#ffffff"
     bordercolor="#666666"
     borderopacity="1.0"
     inkscape:pageopacity="0.0"
     inkscape:pageshadow="2"
     inkscape:zoom="0.35"
     inkscape:cx="178.67666"
     inkscape:cy="-396.42928"
     inkscape:document-units="mm"
     inkscape:current-layer="layer1"
     showgrid="false"
     inkscape:window-width="1920"
     inkscape:window-height="1001"
     inkscape:window-x="1991"
     inkscape:window-y="344"
     inkscape:window-maximized="1" />
  <metadata
     id="metadata3917">
    <rdf:RDF>
      <cc:Work
         rdf:about="">
        <dc:format>image/svg+xml</dc:format>
        <dc:type
           rdf:resource="http://purl.org/dc/dcmitype/StillImage" />
        <dc:title></dc:title>
      </cc:Work>
    </rdf:RDF>
  </metadata>
  <g
     inkscape:label="Ebene 1"
     inkscape:groupmode="layer"
     id="layer1"
     transform="translate(-58.558466,-28.448104)">
    <polygon
       transform="matrix(0.26458333,0,0,0.26458333,58.558466,-23.455206)"
       style="fill:#e3001c;fill-rule:evenodd"
       id="polygon3844"
       points="7.29,246.16 0,205.68 10.01,205.68 13.41,229.6 16.77,205.68 26.57,205.68 19.3,246.16 "
       class="cls-1" />
    <path
       style="fill:#e3001c;fill-rule:evenodd;stroke-width:0.26458332"
       inkscape:connector-curvature="0"
       id="path3846"
       d="m 72.401466,37.134377 h -3.54012 v 2.500313 c 0,0.362479 0.1561,0.529167 0.46302,0.529167 0.30691,0 0.45244,-0.17198 0.45244,-0.529167 v -2.161646 h 2.62466 v 2.180167 c 0,1.436687 -1.03187,2.161646 -3.09298,2.161646 -2.0611,0 -3.0771,-0.748771 -3.0771,-2.243667 v -6.421436 c 0,-1.50019 1.016,-2.25954 3.06387,-2.25954 2.04788,0 3.09298,0.72495 3.09298,2.16958 v 4.074583 m -2.61143,-1.5875 v -2.452683 c 0,-0.35455 -0.14817,-0.52917 -0.45244,-0.52917 -0.30427,0 -0.46302,0.17198 -0.46302,0.52917 v 2.452683 h 0.91546"
       class="cls-1" />
    <rect
       style="fill:#e3001c;stroke-width:0.26458332"
       id="rect3848"
       height="13.229167"
       width="2.6326041"
       y="28.448105"
       x="73.30632"
       class="cls-3" />
    <path
       style="fill:#e3001c;fill-rule:evenodd;stroke-width:0.26458332"
       inkscape:connector-curvature="0"
       id="path3850"
       d="m 76.769736,39.57119 v -6.418796 c 0,-1.50018 1.05834,-2.25954 3.12738,-2.25954 a 4.2333333,4.2333333 0 0 1 2.11666,0.52917 1.7674167,1.7674167 0 0 1 0.91546,1.64042 v 6.614579 c 0,1.436688 -1.01335,2.161646 -3.04535,2.161646 -2.07963,0 -3.12738,-0.759354 -3.12738,-2.251604 m 3.54807,0.07408 v -6.574891 c 0,-0.35454 -0.15875,-0.52917 -0.45244,-0.52917 -0.29369,0 -0.46302,0.17463 -0.46302,0.52917 v 6.559019 c 0,0.362479 0.1561,0.529167 0.46302,0.529167 0.30692,0 0.45244,-0.171979 0.45244,-0.529167"
       class="cls-1" />
    <path
       style="fill:#110009;fill-rule:evenodd;stroke-width:0.26458332"
       inkscape:connector-curvature="0"
       id="path3852"
       d="m 83.765326,37.375148 h 2.62466 v 2.270125 c 0,0.362479 0.14817,0.529167 0.43657,0.529167 0.28839,0 0.4445,-0.346604 0.4445,-1.039813 0,-0.907521 -0.18257,-1.484312 -0.54505,-1.748896 -1.37054,-0.724958 -2.19604,-1.219729 -2.48443,-1.510771 a 1.7859375,1.7859375 0 0 1 -0.42069,-1.28852 v -1.444626 c 0,-1.50019 1.02394,-2.25954 3.06123,-2.25954 1.98966,0 2.97921,0.72496 2.97921,2.16958 v 2.116669 h -2.56646 l 0.0582,-1.280579 c 0,-0.89165 -0.15611,-1.32292 -0.48948,-1.32292 -0.33338,0 -0.48419,0.26458 -0.48419,0.83344 a 3.0374167,3.0374167 0 0 0 0.21431,1.322913 c 0.14817,0.296333 0.94986,0.806979 2.41036,1.526646 a 2.0346458,2.0346458 0 0 1 0.91546,1.733021 v 1.608667 c 0,1.49225 -1.03982,2.251604 -3.1115,2.251604 -2.02936,0 -3.04271,-0.727604 -3.04271,-2.161646 z"
       class="cls-2" />
    <path
       style="fill:#110009;fill-rule:evenodd;stroke-width:0.26458332"
       inkscape:connector-curvature="0"
       id="path3854"
       d="m 90.700056,39.57119 v -6.418796 c 0,-1.50018 1.05833,-2.25954 3.12737,-2.25954 a 4.2465625,4.2465625 0 0 1 2.1299,0.52917 1.7674167,1.7674167 0 0 1 0.91545,1.64042 v 6.614579 c 0,1.436688 -1.00806,2.161646 -3.04535,2.161646 -2.03729,0 -3.12737,-0.759354 -3.12737,-2.251604 m 3.54806,0.07408 v -6.574891 c 0,-0.35454 -0.15611,-0.52917 -0.45508,-0.52917 -0.29898,0 -0.46038,0.17463 -0.46038,0.52917 v 6.559019 c 0,0.362479 0.1561,0.529167 0.46038,0.529167 0.30427,0 0.45508,-0.171979 0.45508,-0.529167"
       class="cls-2" />
    <rect
       style="fill:#110009;stroke-width:0.26458332"
       id="rect3856"
       height="13.229167"
       width="2.6246667"
       y="28.448105"
       x="97.727402"
       class="cls-4" />
    <path
       style="fill:#110009;fill-rule:evenodd;stroke-width:0.26458332"
       inkscape:connector-curvature="0"
       id="path3858"
       d="m 103.83133,30.379564 h -2.62996 v -1.93146 h 2.62996 z m 0,11.297709 h -2.62996 V 30.964294 h 2.62996 z"
       class="cls-2" />
    <path
       style="fill:#110009;fill-rule:evenodd;stroke-width:0.26458332"
       inkscape:connector-curvature="0"
       id="path3860"
       d="m 111.1206,41.677273 h -2.92629 v -8.591019 c 0,-0.33073 -0.14817,-0.49477 -0.45244,-0.49477 -0.30427,0 -0.4445,0.15875 -0.4445,0.47096 v 8.614829 H 104.6727 V 30.964294 h 2.62467 v 0.36248 c 0.3466,-0.2884 0.89164,-0.43656 1.6166,-0.43656 a 2.365375,2.365375 0 0 1 1.32292,0.38629 c 0.40481,0.26458 0.89694,0.635 0.89694,1.13771 z"
       class="cls-2" />
    <path
       style="fill:#110009;fill-rule:evenodd;stroke-width:0.26458332"
       inkscape:connector-curvature="0"
       id="path3862"
       d="m 112.15247,43.944752 v -1.550458 h 2.13784 c 0.61912,0 0.93133,-0.322792 0.93133,-0.965729 -0.34396,0.264583 -0.89165,0.396875 -1.62454,0.396875 a 2.2436667,2.2436667 0 0 1 -1.34673,-0.41275 1.2594167,1.2594167 0 0 1 -0.56886,-1.074208 v -7.702018 q 0,-1.75948 2.09815,-1.75684 a 3.3152292,3.3152292 0 0 1 1.45785,0.4789 l 0.33867,-0.40481 h 2.24896 v 10.572747 a 3.3258125,3.3258125 0 0 1 -0.40217,1.725083 c -0.28046,0.463021 -1.12977,0.693208 -2.55852,0.693208 h -2.71198 m 3.06917,-4.164541 v -6.736297 c 0,-0.33072 -0.15611,-0.48683 -0.45244,-0.48683 -0.29633,0 -0.46302,0.15611 -0.46302,0.48683 v 6.709838 c 0,0.320146 0.1561,0.486834 0.46302,0.486834 a 0.41010417,0.41010417 0 0 0 0.45244,-0.470959"
       class="cls-2" />
    <path
       style="fill:#110009;fill-rule:evenodd;stroke-width:0.26458332"
       inkscape:connector-curvature="0"
       id="path3864"
       d="m 124.87364,37.134377 h -3.53219 v 2.500313 c 0,0.362479 0.14817,0.529167 0.45244,0.529167 0.30427,0 0.45244,-0.17198 0.45244,-0.529167 v -2.161646 h 2.62466 v 2.180167 c 0,1.436687 -1.03187,2.161646 -3.09298,2.161646 -2.0611,0 -3.06123,-0.759355 -3.06123,-2.251605 v -6.413498 c 0,-1.50019 1.02394,-2.25954 3.06123,-2.25954 2.0373,0 3.09298,0.72495 3.09298,2.16958 v 4.074583 m -2.62202,-1.5875 v -2.452683 c 0,-0.35455 -0.14816,-0.52917 -0.45244,-0.52917 -0.30427,0 -0.45243,0.17198 -0.45243,0.52917 v 2.452683 h 0.90752"
       class="cls-2" />
    <path
       style="fill:#110009;fill-rule:evenodd;stroke-width:0.26458332"
       inkscape:connector-curvature="0"
       id="path3866"
       d="m 131.91949,41.677273 h -2.6326 v -8.591019 c 0,-0.33073 -0.15611,-0.49477 -0.45508,-0.49477 a 0.41010417,0.41010417 0 0 0 -0.45244,0.47096 v 8.614829 h -2.61673 V 30.964294 h 2.62467 v 0.36248 c 0.35454,-0.2884 0.889,-0.43656 1.62718,-0.43656 a 2.4024167,2.4024167 0 0 1 1.32292,0.38629 1.285875,1.285875 0 0 1 0.60325,1.13771 z"
       class="cls-2" />
  </g>
</svg>
