<?xml version="1.0" encoding="UTF-8" standalone="no"?>
<!-- Created with Inkscape (http://www.inkscape.org/) -->

<svg
   xmlns:dc="http://purl.org/dc/elements/1.1/"
   xmlns:cc="http://creativecommons.org/ns#"
   xmlns:rdf="http://www.w3.org/1999/02/22-rdf-syntax-ns#"
   xmlns:svg="http://www.w3.org/2000/svg"
   xmlns="http://www.w3.org/2000/svg"
   xmlns:sodipodi="http://sodipodi.sourceforge.net/DTD/sodipodi-0.dtd"
   xmlns:inkscape="http://www.inkscape.org/namespaces/inkscape"
   width="19.870422mm"
   height="19.225225mm"
   viewBox="0 0 19.870422 19.225225"
   version="1.1"
   id="svg2963"
   inkscape:version="0.92.4 (5da689c313, 2019-01-14)"
   sodipodi:docname="widder_s.svg">
  <defs
     id="defs2957" />
  <sodipodi:namedview
     id="base"
     pagecolor="#ffffff"
     bordercolor="#666666"
     borderopacity="1.0"
     inkscape:pageopacity="0.0"
     inkscape:pageshadow="2"
     inkscape:zoom="1.18"
     inkscape:cx="-200.58084"
     inkscape:cy="-151.28563"
     inkscape:document-units="mm"
     inkscape:current-layer="layer1"
     showgrid="false"
     fit-margin-top="0"
     fit-margin-left="0"
     fit-margin-right="0"
     fit-margin-bottom="0"
     inkscape:window-width="1920"
     inkscape:window-height="1001"
     inkscape:window-x="1991"
     inkscape:window-y="-9"
     inkscape:window-maximized="1" />
  <metadata
     id="metadata2960">
    <rdf:RDF>
      <cc:Work
         rdf:about="">
        <dc:format>image/svg+xml</dc:format>
        <dc:type
           rdf:resource="http://purl.org/dc/dcmitype/StillImage" />
        <dc:title></dc:title>
      </cc:Work>
    </rdf:RDF>
  </metadata>
  <g
     inkscape:label="Ebene 1"
     inkscape:groupmode="layer"
     id="layer1"
     transform="translate(-91.362404,-90.839762)">
    <g
       id="g9227"
       transform="matrix(0.3239737,0,0,0.3239737,29.824616,46.83709)"
       style="fill:#ff0000;fill-opacity:1;stroke:none;stroke-width:0.2;stroke-miterlimit:4;stroke-dasharray:none;stroke-opacity:1">
      <path
         class="cls-1"
         d="m 192.48305,140.34367 c -1.08075,-0.67881 9.03682,-11.48658 23.46616,2.94652 6.33294,6.33294 3.41298,14.97537 0.2313,15.14983 -2.14639,0.11751 -2.88207,-2.02506 -3.19303,-3.12477 -1.33482,-4.75923 -7.07246,-11.91131 -12.75692,-15.02847 -4.08425,-2.24878 -7.37588,0.28442 -7.74751,0.0569"
         id="path3832"
         inkscape:connector-curvature="0"
         style="fill:#ff0000;fill-opacity:1;fill-rule:evenodd;stroke:none;stroke-width:0.2;stroke-miterlimit:4;stroke-dasharray:none;stroke-opacity:1" />
      <path
         class="cls-1"
         d="m 199.37727,174.55687 c -0.6788,1.51687 -9.03681,-9.32504 -9.41983,-23.6444 -0.15547,-5.77929 1.24764,-12.76828 14.66069,0.64469 2.61657,2.6166 3.79216,4.75164 6.19641,11.3766 0.37922,1.04665 -2.22981,2.7683 -0.57642,4.42171 0.36031,0.36027 2.27532,1.30832 2.65454,2.86312 0.11387,0.45506 -0.18951,0.64846 -1.51688,1.13767 -0.8267,0.31095 0.0532,1.57375 0.86847,2.43837 a 24.687219,24.687219 0 0 0 2.40425,2.15777 3.7466933,3.7466933 0 0 1 1.441,2.11604 c 0.43235,1.34622 1.49032,6.68186 0.48159,7.5844 -1.00872,0.90254 -1.34622,1.53964 0.0948,2.16156 1.44103,0.62192 2.61283,1.29693 2.93138,3.21956 0.14412,0.86462 -0.0494,1.13766 -0.62192,1.24764 -0.57264,0.10979 -1.92266,0.95943 0.5271,2.88207 0,0 -1.73302,-0.0645 -2.21084,-2.21086 -0.0948,-0.43231 0.19329,-1.00872 0.75844,-1.63442 0,0 -0.81533,0 -1.13766,0.47783 -0.32235,0.47779 -1.34244,0.8646 -2.06676,-0.43232 a 21.763434,21.763434 0 0 1 -1.82404,-5.09293 c -0.0948,-0.53091 0.70155,-0.80396 0.62571,-1.44484 -0.42093,-3.45469 -6.21921,-4.65682 -6.34434,-12.39669 -0.0267,-1.72926 0.72052,-4.32311 0.0454,-5.52904 -0.89876,-1.6003 -5.33184,-3.17028 -5.33184,-5.04363 a 2.0743332,2.0743332 0 0 1 1.29313,-1.86195 c 0.62573,-0.28822 1.29694,-0.0948 1.29694,-2.27532 0,-2.73797 -4.66061,-2.65454 -5.57454,0.91391 -0.91391,3.56847 -0.98597,5.46834 0.23892,10.47785 0.6257,2.54456 0.7243,3.86047 0.0948,5.43044"
         id="path3834"
         inkscape:connector-curvature="0"
         style="fill:#ff0000;fill-opacity:1;fill-rule:evenodd;stroke:none;stroke-width:0.2;stroke-miterlimit:4;stroke-dasharray:none;stroke-opacity:1" />
    </g>
    <g
       id="g9223"
       transform="matrix(0.3239737,0,0,0.3239737,29.824616,46.83709)"
       style="fill:#000000;fill-opacity:1;stroke:none;stroke-width:0.40000001;stroke-miterlimit:4;stroke-dasharray:none;stroke-opacity:1">
      <path
         class="cls-2"
         d="m 214.62953,170.88979 a 3.9400955,3.9400955 0 0 0 1.51684,3.41299 c 0,0 -3.41298,0.0267 -3.41298,-1.93023 0,-1.27797 1.60415,-1.46758 1.93024,-1.49412"
         id="path3836"
         inkscape:connector-curvature="0"
         style="fill:#000000;fill-opacity:1;fill-rule:evenodd;stroke:none;stroke-width:0.40000001;stroke-miterlimit:4;stroke-dasharray:none;stroke-opacity:1" />
      <path
         class="cls-2"
         d="m 248.74412,140.34367 c 1.08082,-0.67881 -9.03302,-11.48658 -23.46614,2.94652 -6.33297,6.33294 -3.41294,14.97537 -0.23511,15.14983 2.14638,0.11751 2.88207,-2.02506 3.19303,-3.12477 1.3387,-4.75923 7.08005,-11.91131 12.76454,-15.02847 4.08425,-2.24878 7.37584,0.28442 7.74368,0.0569"
         id="path3838"
         inkscape:connector-curvature="0"
         style="fill:#000000;fill-opacity:1;fill-rule:evenodd;stroke:none;stroke-width:0.40000001;stroke-miterlimit:4;stroke-dasharray:none;stroke-opacity:1" />
      <path
         class="cls-2"
         d="m 241.8499,174.55687 c 0.67881,1.51687 9.03682,-9.32504 9.41982,-23.6444 0.15547,-5.77929 -1.24762,-12.76828 -14.66064,0.64469 -2.61662,2.6166 -3.7922,4.75164 -6.19642,11.3766 -0.37926,1.04665 2.23358,2.7683 0.57638,4.42171 -0.37922,0.36027 -2.27532,1.30832 -2.65454,2.86312 -0.10989,0.45506 0.18971,0.64846 1.51688,1.13767 0.8267,0.31095 -0.053,1.57375 -0.86837,2.43837 a 24.725142,24.725142 0 0 1 -2.40429,2.15777 3.7391088,3.7391088 0 0 0 -1.44104,2.11604 c -0.43227,1.34622 -1.49034,6.68186 -0.47778,7.5844 1.01247,0.90254 1.34619,1.53964 -0.0949,2.16156 -1.44108,0.62192 -2.60908,1.29693 -2.93142,3.21956 -0.14413,0.86462 0.0494,1.13766 0.62192,1.24764 0.57263,0.10979 1.92265,0.95943 -0.52711,2.88207 0,0 1.73303,-0.0645 2.21084,-2.21086 0.0948,-0.43231 -0.19329,-1.00872 -0.75844,-1.63442 0,0 0.81534,0 1.13766,0.47783 0.32235,0.47779 1.34624,0.8646 2.06676,-0.43232 a 21.778604,21.778604 0 0 0 1.82784,-5.09293 c 0.0948,-0.53091 -0.70156,-0.80396 -0.62572,-1.44484 0.41714,-3.45469 6.21921,-4.65682 6.3444,-12.39669 0.0267,-1.72926 -0.72436,-4.32311 -0.0454,-5.52904 0.89874,-1.6003 5.33183,-3.17028 5.33183,-5.04363 a 2.0743332,2.0743332 0 0 0 -1.29693,-1.87711 c -0.62572,-0.28823 -1.29693,-0.0948 -1.29693,-2.27533 0,-2.73798 4.6606,-2.65456 5.57453,0.91391 0.91391,3.56847 0.98976,5.46836 -0.23892,10.47786 -0.6257,2.54455 -0.7243,3.86046 -0.0948,5.43043"
         id="path3840"
         inkscape:connector-curvature="0"
         style="fill:#000000;fill-opacity:1;fill-rule:evenodd;stroke:none;stroke-width:0.40000001;stroke-miterlimit:4;stroke-dasharray:none;stroke-opacity:1" />
      <path
         class="cls-2"
         d="m 226.60147,170.88979 a 3.9400955,3.9400955 0 0 1 -1.51688,3.41299 c 0,0 3.41298,0.0267 3.41298,-1.93023 0,-1.27797 -1.60411,-1.46758 -1.93024,-1.49412"
         id="path3842"
         inkscape:connector-curvature="0"
         style="fill:#000000;fill-opacity:1;fill-rule:evenodd;stroke:none;stroke-width:0.40000001;stroke-miterlimit:4;stroke-dasharray:none;stroke-opacity:1" />
    </g>
  </g>
</svg>
