<?xml version="1.0" encoding="UTF-8" standalone="no"?> <!-- Created with Vectornator for iOS (http://vectornator.io/) --><!DOCTYPE svg PUBLIC "-//W3C//DTD SVG 1.1//EN" "http://www.w3.org/Graphics/SVG/1.1/DTD/svg11.dtd">
<svg height="100%" style="fill-rule:nonzero;clip-rule:evenodd;stroke-linecap:round;stroke-linejoin:round;" xmlns:xlink="http://www.w3.org/1999/xlink" xmlns="http://www.w3.org/2000/svg" xml:space="preserve" width="100%" xmlns:vectornator="http://vectornator.io" version="1.1" viewBox="0 0 19.8704 19.2252">
<metadata>
<vectornator:setting key="DimensionsVisible" value="1"/>
<vectornator:setting key="PencilOnly" value="0"/>
<vectornator:setting key="SnapToPoints" value="0"/>
<vectornator:setting key="OutlineMode" value="0"/>
<vectornator:setting key="CMYKEnabledKey" value="0"/>
<vectornator:setting key="RulersVisible" value="1"/>
<vectornator:setting key="SnapToEdges" value="0"/>
<vectornator:setting key="GuidesVisible" value="1"/>
<vectornator:setting key="DisplayWhiteBackground" value="0"/>
<vectornator:setting key="doHistoryDisabled" value="0"/>
<vectornator:setting key="SnapToGuides" value="1"/>
<vectornator:setting key="TimeLapseWatermarkDisabled" value="0"/>
<vectornator:setting key="Units" value="Points"/>
<vectornator:setting key="DynamicGuides" value="0"/>
<vectornator:setting key="IsolateActiveLayer" value="0"/>
<vectornator:setting key="SnapToGrid" value="0"/>
</metadata>
<defs/>
<g id="layer1" vectornator:layerName="layer1">
<g opacity="1">
<path d="M0.821654+1.46499C0.471519+1.24507+3.74935-2.25636+8.42407+2.41958C10.4758+4.47129+9.52979+7.27121+8.49901+7.32773C7.80363+7.3658+7.56529+6.67166+7.46455+6.31538C7.0321+4.77352+5.17326+2.45643+3.33164+1.44656C2.00845+0.718011+0.942052+1.5387+0.821654+1.46499" opacity="1" fill="#eb2d2d"/>
<path d="M3.0552+12.5492C2.83529+13.0406+0.127513+9.52809+0.00342458+4.889C-0.0469436+3.01666+0.407627+0.752412+4.7531+5.09786C5.6008+5.94557+5.98166+6.63727+6.76058+8.78358C6.88343+9.12267+6.03818+9.68044+6.57383+10.2161C6.69056+10.3328+7.31098+10.64+7.43383+11.1437C7.47072+11.2911+7.37244+11.3538+6.9424+11.5122C6.67457+11.613+6.95964+12.0221+7.22376+12.3022C7.46786+12.552+7.72806+12.7855+8.00268+13.0013C8.23396+13.1679+8.39923+13.4106+8.46952+13.6868C8.60959+14.123+8.95235+15.8516+8.62555+16.144C8.29875+16.4364+8.18941+16.6428+8.65626+16.8443C9.12312+17.0457+9.50275+17.2644+9.60595+17.8873C9.65264+18.1674+9.58995+18.2559+9.40446+18.2915C9.21894+18.3271+8.78157+18.6023+9.57523+19.2252C9.57523+19.2252+9.01378+19.2043+8.85898+18.509C8.82826+18.3689+8.9216+18.1822+9.10469+17.9795C9.10469+17.9795+8.84055+17.9795+8.73612+18.1343C8.63169+18.289+8.3012+18.4144+8.06654+17.9942C7.80171+17.4709+7.60319+16.9167+7.4756+16.3442C7.44489+16.1722+7.70289+16.0838+7.67832+15.8761C7.54195+14.7569+5.66346+14.3674+5.62292+11.8599C5.61427+11.2997+5.85635+10.4594+5.63763+10.0687C5.34645+9.55021+3.91025+9.04158+3.91025+8.43466C3.91796+8.16832+4.0823+7.93168+4.32919+7.83144C4.53191+7.73807+4.74936+7.80073+4.74936+7.0943C4.74936+6.20727+3.23945+6.2343+2.94336+7.39038C2.64728+8.54647+2.62393+9.16198+3.02076+10.7849C3.22347+11.6093+3.25542+12.0356+3.05148+12.5442" opacity="1" fill="#eb2d2d"/>
</g>
<g opacity="1">
<path d="M7.99653+11.3611C7.96415+11.7889+8.14876+12.2042+8.48795+12.4668C8.48795+12.4668+7.38223+12.4755+7.38223+11.8415C7.38223+11.4275+7.90193+11.366+8.00758+11.3574" opacity="1" fill="#ffffff"/>
<path d="M19.0488+1.46499C19.3989+1.24507+16.1223-2.25636+11.4464+2.41958C9.39463+4.47129+10.3406+7.27121+11.3702+7.32773C12.0656+7.3658+12.3039+6.67166+12.4046+6.31538C12.8383+4.77352+14.6984+2.45643+16.54+1.44656C17.8632+0.718011+18.9296+1.5387+19.0488+1.46499" opacity="1" fill="#ffffff"/>
<path d="M16.8152+12.5492C17.0351+13.0406+19.7429+9.52809+19.867+4.889C19.9174+3.01666+19.4628+0.752412+15.1173+5.09786C14.2696+5.94557+13.8888+6.63727+13.1098+8.78358C12.987+9.12267+13.8335+9.68044+13.2966+10.2161C13.1737+10.3328+12.5594+10.64+12.4366+11.1437C12.401+11.2911+12.498+11.3538+12.928+11.5122C13.1958+11.613+12.9108+12.0221+12.6467+12.3022C12.4026+12.552+12.1424+12.7855+11.8678+13.0013C11.6363+13.1677+11.471+13.4105+11.4009+13.6868C11.2609+14.123+10.9181+15.8516+11.2461+16.144C11.5741+16.4364+11.6822+16.6428+11.2154+16.8443C10.7485+17.0457+10.3701+17.2644+10.2657+17.8873C10.219+18.1674+10.2817+18.2559+10.4671+18.2915C10.6527+18.3271+11.09+18.6023+10.2964+19.2252C10.2964+19.2252+10.8578+19.2043+11.0126+18.509C11.0433+18.3689+10.95+18.1822+10.7669+17.9795C10.7669+17.9795+11.0311+17.9795+11.1355+18.1343C11.2399+18.289+11.5716+18.4144+11.8051+17.9942C12.0703+17.471+12.2692+16.9167+12.3972+16.3442C12.4279+16.1722+12.1699+16.0838+12.1945+15.8761C12.3297+14.7569+14.2094+14.3674+14.2499+11.8599C14.2586+11.2997+14.0153+10.4594+14.2352+10.0687C14.5264+9.55021+15.9626+9.04158+15.9626+8.43466C15.9566+8.16622+15.7914+7.9271+15.5424+7.82653C15.3397+7.73315+15.1223+7.79582+15.1223+7.08938C15.1223+6.20235+16.6322+6.22938+16.9283+7.38547C17.2243+8.54156+17.2489+9.15707+16.8509+10.78C16.6481+11.6044+16.6162+12.0307+16.8201+12.5393" opacity="1" fill="#ffffff"/>
<path d="M11.8751+11.3611C11.9075+11.7889+11.7229+12.2043+11.3837+12.4668C11.3837+12.4668+12.4894+12.4755+12.4894+11.8415C12.4894+11.4275+11.9697+11.366+11.8641+11.3574" opacity="1" fill="#ffffff"/>
</g>
</g>
</svg>
