<?xml version="1.0" encoding="utf-8"?>

<!DOCTYPE svg PUBLIC "-//W3C//DTD SVG 1.1//EN" "http://www.w3.org/Graphics/SVG/1.1/DTD/svg11.dtd">
<svg version="1.1" id="Layer_1" xmlns="http://www.w3.org/2000/svg" xmlns:xlink="http://www.w3.org/1999/xlink" x="0px" y="0px"
	 viewBox="0 0 2006.9895 1699.4978" enable-background="new 0 0 2006.9895 1699.4978" xml:space="preserve">
<g>
	<path d="M1932.6777,289.507c-2.4678-22.3438-7.5425-43.9705-14.667-65.1008c-5.7363-17.0127-13.2424-33.2996-22.3345-48.9565
		c-6.8384-11.7759-14.2842-23.0436-22.8149-33.4971c-13.4556-16.4891-28.8838-31.447-46.4414-43.5056
		c-7.562-5.1934-15.4209-9.9568-23.5349-14.2371c-21.4919-11.3369-44.9307-19.4063-69.1272-22.2173
		c-25.0862-2.9146-51.646,0.2189-76.2322,5.6027c-24.0627,5.2692-47.4231,13.7626-69.2214,25.2388
		c-21.8411,11.4987-40.8818,26.4614-60.2378,41.6198c-7.0203,5.4978-12.6851,12.4045-19.0916,18.5341
		c-6.4694,6.1896-12.3979,12.8182-18.0774,19.7084c-6.7369,8.1731-12.7693,16.8987-19.3739,25.1465
		c-6.8586,8.5649-11.2555,18.5557-17.4154,27.5317c-6.0778,8.8562-9.9827,19.252-14.655,29.0623
		c-6.4691,13.5834-12.1261,27.4277-17.0957,41.5349c-7.9506,22.569-13.3615,45.8291-16.8881,69.5159
		c-0.8785,5.9014-0.6682,11.9866-1.8678,17.7407c-3.4615,16.604-1.7218,33.3801-2.2872,50.0549
		c-0.3181,9.3816,0.4344,18.9324,2.7053,28.2075c1.2406,5.0676-0.7394,8.1307-5.8171,9.5062
		c-6.5905,1.7853-12.4794,5.056-17.892,9.1888c-6.452,4.9263-12.1898,10.2693-10.2253,19.5581
		c0.4515,2.1343-0.4764,2.8848-2.2598,3.6652c-3.5822,1.5677-7.0682,3.3707-10.5256,5.2053
		c-8.6666,4.5985-17.4136,9.3261-26.3671,12.992c-8.5693,3.5087-18.2222,4.5947-26.786,8.7594
		c-3.6888,1.7939-7.7997,2.615-11.0349,5.4635c-7.6937,6.7743-11.725,14.5009-8.5035,25.1156
		c0.9211,3.0354-0.0728,7.2583,2.8724,8.9788c3.5038,2.0466,1.8162,2.2637-0.2521,3.3636
		c-9.0198,4.7975-17.1536,11.2125-26.665,15.0774c-8.9076,3.6195-17.0247,12.3773-27.9336,4.9567
		c-0.1172-0.0796-0.3325-0.0551-0.4923-0.026c-3.5837,0.6495-5.3656-1.5042-7.0713-4.2029
		c-3.8115-6.0309-7.6245-11.8915-12.9353-17.0167c-5.342-5.1553-10.4231-10.6517-16.057-15.5361
		c-2.2095-1.9153-5.0602-2.197-7.9287-1.4938c-3.1497,0.7721-3.0781,3.4567-3.6116,5.8843
		c-0.3779,1.7191,0.1295,3.2666,0.3192,4.8949c0.2639,2.2653-0.582,4.1929-2.9889,4.3298c-2.4596,0.1401-4.4686,1.1956-6.5416,2.177
		c-5.3715,2.5427-10.6818-0.1327-16.0199-0.0723c-5.7883,0.0654-13.1456,0.403-18.4347-2.4133
		c-4.0085-2.1345-6.1169-4.8613-11.1604-5.1865c-3.8779-0.25-7.886,0.2258-11.5659-1.0223
		c-4.4231-1.5001-7.6643-5.241-11.6321-7.705c-5.5173-3.426-12.2052-4.2571-18.6563-5.0081
		c-21.9512-2.5559-44.384-6.7461-66.4821-6.8809c-1.0394-0.0063-2.1658,0.0151-2.9871,0.6526
		c-1.2386,0.9614-1.2045,2.7917-1.5905,4.3115c-0.386,1.5197-2.1566,3.0623-3.345,2.0393
		c0.8455-6.8335-1.9674-12.4265-6.0852-17.5811c0.7474-0.4895,2.0264-1.1831,2.4878-2.015
		c4.7559-8.588,14.9252-10.6527,21.0579-17.5651c0.4205-0.4741,1.5601-0.3605,2.3729-0.4285
		c4.2881-0.3579,8.5972-1.1183,12.8644-0.9343c8.5775,0.3696,16.136-2.3426,23.6484-6.0866
		c4.6833-2.334,9.264-5.3746,15.0991-4.5812c5.3761,0.7311,6.6893-0.6384,4.3342-5.6863
		c-4.0515-8.683-10.2164-15.9613-17.8103-21.9064c-4.8303-3.7814-10.9641-6.3131-12.4072-13.2551
		c-0.4438-2.1356-1.7119-3.3778-3.8618-3.6604c0.01-0.0289,0.0199-0.0579,0.0298-0.0868c-0.0583,0.0205-0.1167,0.0409-0.1753,0.0615
		l0.1147,0.115c-0.6266-0.1091-2.5319,1.3066-1.6067-0.6493c1.7277-3.6525-0.0809-5.037-2.8489-6.5643
		c-3.9067-2.1559-5.6241-5.9785-6.427-10.1021c-0.5811-2.9846-1.7443-4.8718-4.0966-7.1721
		c-2.8428-2.78-7.2832-4.1406-8.7225-8.0342c-1.0304-2.7874-2.5968-4.8987-4.5771-6.9297
		c-4.5148-4.6301-8.9438-9.3439-13.4434-13.989c-1.9178-1.9799-2.488-4.0028-1.2971-6.7014
		c1.4097-3.1943-2.3042-13.5847-5.2872-15.4594c-0.542-0.3407-1.4194-0.8124-1.8234-0.6045
		c-3.5889,1.8475-5.6907-1.2123-8.4301-2.3126c-9.3649-3.7617-16.6997-11.0994-26.1486-14.6725
		c-0.5082-0.1923-0.6475-0.3104-0.5438-0.9279c0.4957-2.9541-2.0237-3.9175-3.7594-5.275
		c-6.929-5.4192-13.5118-11.4467-21.014-15.9231c-8.1707-4.8751-16.5327-7.3529-26.002-5.964
		c-8.902,1.3059-18.4999,1.1399-26.8987,4.7117c-12.3198,5.2395-23.8315,12.0913-34.6272,19.9158
		c-6.9661,5.0488-13.3245,11.0066-19.7053,16.8794c-4.8716,4.4836-8.6174,9.9246-12.8453,14.9763
		c-3.9774,4.7524-8.3326,9.2324-10.3845,15.2294c-11.17,16.3771-18.5548,35.259-22.163,54.7223
		c-1.879,10.1355-2.5527,20.5217-1.7292,30.8047c0.7679,9.5881,3.589,18.2188,5.9915,27.4106
		c0.6328,2.4205,0.1174,3.5521-1.2628,3.0813c-7.2482-2.4728-13.9755-5.9965-20.2306-10.3959
		c-5.0137-3.5262-10.4644-5.7737-16.6401-4.981c-2.8491,0.366-5.5691,0.2181-8.3879,0.1051
		c-6.6464-0.2664-13.6353-1.37-19.8613,0.2559c-4.8924,1.2777-9.996,1.3577-14.8617,3.1855
		c-5.0297,1.8894-10.9984,2.4602-15.2719,5.3442c-7.6912,5.1907-16.3459,8.4973-23.7992,14.323
		c-11.8958,9.2979-23.1689,18.6963-30.7611,32.0784c-2.1028,3.7064-4.8425,7.4712-8.8159,9.8899
		c-6.2238,3.7887-9.5051,9.7034-12.3185,16.2756c-2.8247,6.599-1.6343,13.8605-6.1891,20.5122
		c-7.416,10.8306-8.6765,24.7758-14.5587,36.4954c-4.9681,9.8984-7.2259,20.3117-9.3192,30.9202
		c-0.9168,4.6462-1.0715,9.2209-3.9003,13.7134c-1.4415,2.2894-1.0884,7.4841-0.3738,11.4423
		c0.4133,2.2891,0.5433,6.553-1.1795,6.738c-3.5129,0.3774-6.387,2.4327-9.9056,2.5704c-6.4429,0.2521-12.8117-0.619-19.3656,1.593
		c-4.6789,1.5791-8.1159,4.1649-10.8082,7.4982c-6.2971,7.7959-12.6605,15.514-19.2996,23.0237
		c-3.6037,4.0763-7.7474,7.6936-9.8353,13.0991c-1.5763,4.0808-2.1445,8.2293-2.7941,12.4294
		c-0.9996,6.4639,0.1571,13.7177-7.8293,17.3058c-1.4073,0.6323-3.1316,0.9902-4.636,2.0097
		c-5.4888,3.7194-5.4936,9.7667-6.2843,14.8947c-1.5142,9.8192-6.7452,17.1312-13.1539,23.9756
		c-0.9064,0.968-2.3549,1.5609-3.7077,2.1824c-6.2344,2.864-12.7257,5.1413-18.7256,8.5727
		c-6.2822,3.5929-11.6848,9.0338-19.5497,9.5258c-1.6323,0.1021-2.9797,1.6566-3.6539,3.1208
		c-1.2177,2.6444-3.4531,3.7159-5.8214,4.9942c-5.4633,2.9489-11.4963,5.049-14.9768,10.9637
		c-1.5069,2.5609-3.8801,5.0175-6.455,6.4553c-4.6041,2.5709-7.788,6.258-11.0051,10.2559
		c-4.3779,5.4399-8.3326,11.7034-16.5162,12.2969c-1.4803,0.1074-2.6019,1.7281-3.8391,2.7212
		c-3.0191,2.4234-1.7493,6.9019-4.944,8.9673c-11.1937,7.2372-22.8271,13.8595-32.5173,23.1978
		c-0.8306,0.8004-1.7645,0.7733-2.7522,0.8519c-3.4764,0.2767-6.3159,1.67-8.4114,4.5737c-1.242,1.7212-3.0801,2.606-5.0456,3.4872
		c-10.2322,4.5879-20.7928,8.5013-30.4073,14.3815c-1.0486,0.6414-1.907,2.5376-3.1531,1.1455
		c-1.1328-1.2654,0.7278-2.3623,1.4461-3.2455c4.2579-5.2351,8.9065-10.2291,11.6409-16.4709
		c1.5246-3.4801,3.9228-6.3683,5.6195-9.7545c3.6011-7.1874,8.5809-13.703,10.5207-21.6849
		c0.4282-1.762,1.0419-3.4399,2.6423-3.9233c2.1423-0.647,2.3992-2.136,3.1559-3.8513c3.1407-7.1185,7.0428-13.7491,13.5529-18.4647
		c7.2631-5.2609,11.5643-12.954,16.1231-20.3513c3.922-6.3639,6.1895-13.5262,8.9423-20.4446
		c1.71-4.2977,3.6808-8.4962,5.2658-12.8373c0.8807-2.4122,1.4122-4.8091,0.9869-7.6681
		c-1.1158-7.5015-5.8772-12.5446-10.9282-17.2268c-7.2902-6.7579-16.1376-11.2325-24.7057-16.2352
		c-9.731-5.6816-20.0211-10.0773-30.0544-14.9548c-14.4072-7.0038-28.751-14.0751-42.8633-21.6608
		c-7.598-4.084-14.8071-8.8615-22.4935-12.7075c-8.8646-4.4354-18.0974-8.1492-27.2433-12.0027
		c-5.3795-2.2665-10.906-4.1645-16.8806-4.1266c-1.1602,0.0073-2.454,0.2149-3.4601-0.2079
		c-6.3363-2.6628-12.8947-3.9253-19.7685-3.8047c-5.9976,0.1052-11.9996,0.0904-17.9978,0.0034
		c-6.5642-0.0951-12.1083,1.2891-17.8714,5.4528c-7.2877,5.2652-10.8707,12.9204-13.6307,20.0319
		c-2.7513,7.089-0.5696,15.5649,7.5268,20.7648c4.8248,3.0988,9.4012,6.7012,13.6322,10.777
		c4.3442,4.1849,8.2284,9.465,12.7865,12.5486c7.9842,5.4013,13.9066,12.6352,21.0082,18.7304
		c1.4736,1.2647,3.4631,1.8859,4.4269,3.8657c1.9213,3.9465,5.4117,6.7245,7.9707,10.1876
		c4.0437,5.4725,10.9224,7.9178,14.41,13.9951c1.1247,1.9599,1.0575,4.3463,3.0856,6.0424c3.5137,2.9385,6.5826,6.405,9.8812,9.6058
		c2.7642,2.6823,2.1402,5.697-0.0327,7.9268c-4.4076,4.5229-10.2918,7.0593-15.7855,9.9257
		c-6.149,3.2084-11.6663,6.7593-14.3843,13.4155c-3.3019,8.0862-4.2157,17.1412-8.6124,24.6774
		c-5.4949,9.4186-9.5151,19.3537-13.7052,29.343c-2.5565,6.0948-6.9311,12.0945-12.0103,16.2996
		c-6.7961,5.6265-12.3066,12.2002-17.8902,18.7964c-5.437,6.423-10.4467,13.2058-15.7352,19.757
		c-3.4412,4.2627-7.0474,8.3921-10.5766,12.5837c-8.0228,9.5287-11.8179,21.6334-19.165,31.5442
		c-3.4868,4.7034-6.2324,9.8459-9.9064,14.488c-6.1163,7.7278-10.8201,16.3398-10.6266,26.9315
		c0.1919,10.4977-0.1737,21.048,0.9244,31.5082c0.7287,6.9414-0.6194,15.5417,4.0592,21.2178
		c2.945,3.5726,7.0485,5.9493,10.946,8.4479c8.8366,5.665,17.0724,12.3373,26.4775,16.9978
		c14.1293,7.0016,27.4714,4.516,42.4868,3.4277c14.614-1.0591,29.1262-3.188,42.8847-7.8942
		c27.987-9.573,55.4599-20.5667,82.616-32.354c13.9094-6.0375,28.1852-11.1785,42.8121-15.3981
		c36.1293-10.4231,72.9902-16.3275,110.3806-19.8114c17.3363-1.6152,33.9139,0.2751,50.27,5.7207
		c2.0768,0.6914,4.0011,1.67,5.5751,3.166c5.2999,5.0372,10.3065,10.302,14.2338,16.5621
		c13.2968,21.1953,26.6894,42.3308,40.0975,63.4559c4.3536,6.8595,8.2452,14.1053,12.989,20.5875
		c4.6486,6.3523,9.4106,12.7233,14.1726,19.0253c7.4779,9.8962,14.3768,20.2666,20.9717,30.7808
		c4.7088,7.5071,9.4551,15.106,11.8984,23.8145c0.6345,2.2615,0.4118,3.3739-2.2773,3.345
		c-3.9811-0.0428-7.9703,0.0548-11.9463,0.2728c-15.4249,0.8455-30.6498,3.3931-45.9576,5.2778
		c-18.0177,2.2184-36.0791,4.353-54.3244,4.3206c-5.814-0.0103-11.9803,0.2751-17.0291,4.1769
		c-1.8492,1.4291-3.0328,0.6215-3.9628-1.1243c-1.2336-2.3156-1.9374-5.243-3.7891-6.8408
		c-6.9303-5.9794-11.8065-13.8561-18.9057-19.7019c-3.1037-2.556-6.6433-4.3302-9.7162-6.8622
		c-6.4254-5.2947-12.32-10.0243-22.2274-6.2227c-8.0857,3.1027-13.679,8.3772-18.7637,14.3361
		c-8.0969,9.489-10.4279,22.0356-15.3915,33.1802c-0.9905,2.224-3.5871,3.277-3.4003,6.6093
		c0.738,13.1641-3.5663,25.6449-5.9564,38.4066c-2.4193,12.9182-7.8015,24.0227-17.3145,33.0049
		c-5.674,5.3571-9.7795,11.6483-13.1483,18.6188c-1.765,3.6521-3.7556,7.2142-5.618,10.8307
		c-7.6102,14.7775-12.4214,30.236-14.618,46.781c-1.6027,12.0721,1.3129,20.7397,12.0653,27.2778
		c10.284,6.2533,22.8314,6.2845,32.1265-1.3821c7.3268-6.0432,14.2709-12.4675,20.0403-20.0571
		c1.733-2.2797,3.3503-4.104,6.7347-4.2661c2.7202-0.1302,5.4843-2.3286,7.3207-4.0092c4.4307-4.054,8.979-8.11,12.7422-12.9247
		c1.643-2.1019,3.7919-3.8177,5.5482-5.9187c1.0999-1.3157,2.5908-3.1951,4.623-4.1228c3.1991-1.4604,6.9573-2.6956,5.9962-7.6639
		c-0.2836-1.4659,1.3846-2.1111,2.3392-2.9907c0.2218,0.4373,0.4586,0.8337,0.9142,0.2238
		c0.0107-0.0143-0.3995-0.3428-0.6135-0.5247c0.3326-0.473-0.42-1.3823,0.6299-1.5669l-0.0491-0.1235
		c3.8425-2.9935,5.0742-8.38,9.736-10.6226l0.0229,0.0543c1.4284-1.325,1.899-4.9506,4.9858-2.5148
		c7.8211,6.1716,16.5118,9.5951,26.5853,9.0654l-0.1088-0.1423c0.3701-1.0135,0.7521-0.9064,1.1424-0.0121
		c-0.0239,0.0002-0.0478,0.0005-0.0717,0.0007c0.0087,0.0121,0.017,0.0215,0.0257,0.0339c2.851-1.7977,5.7333-3.4977,7.9018-6.2295
		c1.7128-2.1577,3.2034-3.4889,5.3632,0.2783c4.4182,7.7064,16.0179,11.8845,25.0414,10.226
		c22.0709-4.0573,44.1624-7.9712,66.6278-9.3341c6.7429-0.4088,13.4244-1.782,20.1438-2.6376
		c8.8661-1.1287,17.6518-3.6158,26.7097-1.152c10.4761,2.8496,21.0259,5.429,31.5016,8.2799
		c6.6277,1.8038,13.4777,1.4393,20.2015,2.3276c8.4775,1.1199,16.0583,1.8287,24.5544,1.7856
		c4.9586-0.025,10.2722,3.2909,14.7936,2.5646c1.9363-0.311,3.6244-1.4486,5.2421-2.5571
		c15.7559-10.797,41.1431-24.2865,39.592-45.9095c-1.1642-16.2285,0.4962-32.6556,4.8842-48.323
		c-1.0941-9.5297-2.439-17.6238-6.8362-26.3115c-5.3335-10.5374-8.5132-21.7842-10.7417-33.3488
		c-2.9353-15.2312-5.2046-30.6552-9.2506-45.5925c-5.9456-21.9508-11.9339-43.9391-20.4017-65.1381
		c-5.5018-13.7733-10.9025-27.6034-15.7552-41.6135c-2.613-7.5437-8.5734-13.5875-8.9468-22.1708
		c-0.2036-4.6764-2.1249-9.256-3.4289-13.8481c-1.0867-3.8264,1.146-8.9127-4.7979-10.5295
		c-0.2722-0.0739-0.4385-0.8608-0.5004-1.3357c-1.3989-10.7356-7.5443-20.8461-4.2623-32.2108
		c0.118-0.4087-0.1232-1.0005-0.3553-1.4191c-2.4055-4.3409,0.788-4.0947,3.275-3.6825c10.6132,1.7589,21.286,0.6307,31.9261,0.854
		c4.7964,0.1007,8.3072-2.1639,9.4212-7.0872c0.6299-2.7839,1.8586-5.2274,3.1212-7.7432
		c3.4682-6.9103,6.3819-13.9816,8.2929-21.5853c2.6747-10.6431,7.3882-20.7649,15.8074-27.9617
		c7.6411-6.5316,15.3665-12.8859,22.421-20.0835c2.8396-2.8971,5.9248-5.2551,5.5543-9.8114
		c-0.1035-1.2731,0.9255-1.3575,1.7833-1.885c6.1929-3.8092,12.6427-7.3302,18.3175-11.8193
		c7.1172-5.6304,12.5361-12.9518,17.4575-20.598c5.8806-9.1361,11.8352-18.2262,17.8737-27.2587
		c3.9542-5.9149,7.0992-12.9417,12.4071-17.2542c9.1948-7.4705,17.3776-16.1816,27.9104-22.1798
		c13.1921-7.5126,25.2925-16.9081,36.384-27.2154c8.583-7.976,17.2925-16.0357,23.9375-25.9966
		c3.7754-5.6595,7.8945-12.2551,16.7341-7.5062c0.8276,0.4447,1.9454,0.3751,2.9349,0.4885
		c4.2211,0.4838,7.7799,1.9021,10.9985,5.0562c2.8724,2.8148,6.4882,4.6603,11.115,4.7426
		c4.3207,0.0769,9.075,0.8131,12.4585,4.1021c4.6423,4.5128,9.7737,8.4128,14.7515,12.5058
		c10.281,8.4537,20.176,17.4405,31.7635,24.1563c23.4587,13.5959,47.0837,26.8515,71.2354,39.2394
		c11.8008,6.0529,23.3488,9.5894,36.496,9.2382c5.5715-0.1489,10.1764-1.4779,14.6019-4.7505
		c5.4106-4.0011,9.2178-10.0838,15.7046-12.5797c6.4496-2.4816,12.75-5.22,18.5316-8.9897
		c15.298-9.9748,26.8175-24.0749,39.6207-36.7494c9.1293-9.0374,16.5244-19.6,24.6208-29.5434
		c0.8733-1.0726,1.7721-3.1091,3.2402-2.6799c1.5278,0.4466,1.6611,2.4754,1.9536,4.1217
		c3.3441,18.8228,6.7451,37.6357,10.182,56.4419c4.9155,26.8979,9.9695,53.771,14.7913,80.6857
		c7.5048,41.8905,14.7759,83.8232,22.4181,125.6884c0.7813,4.2792-0.226,7.4852-3.1329,9.7723
		c-4.7565,3.7423-10.5703,6.7358-16.4674,6.3176c-6.5049-0.4609-9.6077,2.4559-11.988,7.3798
		c-0.9767,2.0203-2.344,2.3975-4.3693,3.1125c-8.1069,2.8629-12.5637-6.449-19.9269-5.4965
		c-0.1925,0.025-0.6019-0.772-0.7302-1.2355c-1.6838-6.0785-5.4849-11.2218-7.61-17.0736
		c-2.9427-8.1039-3.5161-16.7391-5.05-25.1597c-1.5204-8.3456-3.7876-16.4458-10.2002-22.5502
		c-4.7274-4.5002-9.111-4.7151-14.1385-0.7288c-8.8688,7.032-12.6836,16.9182-13.6523,27.6294
		c-1.1382,12.5825,0.557,25.1523,2.3636,37.653c1.2328,8.5303,1.8666,17.1188,0.7906,25.7417
		c-1.3992,11.2158-5.0219,22.0363-6.3875,33.2029c-1.6407,13.4158-1.7676,26.938,1.6237,40.2556
		c1.7128,6.726,3.9739,13.1332,7.8757,18.9746c5.7538,8.614,14.2581,13.5741,23.2073,17.9183
		c2.9066,1.4108,3.8822,2.7874,1.5371,5.3206c-5.8947,6.3677-10.1698,13.9287-14.2476,21.3877
		c-8.4385,15.4355-18.0238,30.2186-24.6033,46.7555c-4.5881,11.532-10.6431,22.491-14.314,34.4707
		c-2.9725,9.7009-6.6852,19.1812-9.4862,28.9269c-2.4978,8.6907-3.3287,17.8141-5.3047,26.5972
		c-3.6833,16.3718-5.4846,32.9644-6.6849,49.5516c-1.7776,24.5657-0.8322,49.1454,3.4836,73.5211
		c3.061,17.2885,7.6639,34.1394,14.3445,50.3301c6.2467,15.1396,14.1451,29.4214,23.476,42.9838
		c10.672,15.5118,23.4463,28.8757,38.3157,40.2527c18.4609,14.1248,39.1259,23.9642,61.4471,30.2896
		c8.0275,2.2749,16.1659,4.0216,24.5355,4.895c6.9884,0.7294,13.9875,0.9159,20.9591,1.5259
		c5.9799,0.5228,12.0686,0.8035,17.8331,0.0168c8.7611-1.1956,17.6044-1.4089,26.3806-3.3047
		c11.8633-2.5625,23.4308-4.6376,35.0004-8.4274c11.2023-3.6696,22.1976-7.9691,32.9215-12.8635
		c21.448-9.7889,41.8108-21.9579,60.5764-36.2311c25.9177-19.713,49.7725-43.3665,70.335-68.7061
		c14.6443-18.0388,27.8489-37.2452,39.458-57.3716c19.0647-33.0519,33.0974-68.3258,43.5896-104.8927
		c3.3638-11.7229,6.0444-23.6411,8.0425-35.672c3.9978-24.072,5.2635-48.5946,3.8052-72.9518
		c-1.4451-24.1311-5.3652-48.1699-12.5361-71.2809c-7.0015-22.5653-16.7935-46.428-32.0354-64.7159
		c-0.3115-0.3724-0.6268-0.7419-0.9457-1.1082c-5.5571-6.3556-10.7772-13.0377-16.894-19.0182
		c-5.8616-5.7307-12.0406-11.1071-18.3524-16.1498c-7.3488-5.8713-15.3674-11.1091-23.845-15.3986
		c-6.7201-3.4001-13.4081-7.0176-20.4625-9.5627c-7.8207-2.8215-8.4586-3.3843-7.9329-11.2361
		c0.1805-2.6946,4.5062-3.1208,2.6759-6.2871c1.5723,0.7468,3.0876,1.6638,4.7264,2.2115
		c8.0687,2.6969,20.4506,3.3431,25.2971-8.2889c3.8801-9.3127,7.6749-18.4573,10.1649-28.4271
		c7.1128-28.4805,15.5236-56.6283,21.4935-85.4178c1.7301-8.3436,2.7982-17.0189,7.1371-24.6409
		c0.095-0.3173,0.2559-0.6166,0.4988-0.8605c0.0216-0.0355,0.0405-0.072,0.0623-0.1075c0.0227-0.0001,0.0468-0.0017,0.0699-0.0024
		c-0.005-0.0306-0.0099-0.0611-0.015-0.092c0.0001,0-0.0232,0.024-0.0466,0.0479l-0.0469,0.0479
		c0.8173-1.217,1.8175-1.1456,2.9639-0.4799c2.5892,1.5037,5.2332,3.433,7.611,4.6227c4.4502,2.2265,8.9462,4.5156,13.4143,6.8022
		c1.9635,1.0049,4.1252,1.7672,2.1838,4.6461c-0.424,0.6287-0.4065,1.7432,0.4425,2.1575c0.394,0.1923,1.4143-0.1519,1.6788-0.5592
		c2.0367-3.136,4.0435-1.3429,6.0972-0.0908c2.7878,1.6997,5.5624,3.4251,8.4064,5.0264c0.8822,0.4967,1.3239,1.179,1.0254,1.965
		c-2.8533,7.5128,2.2179,1.0554,3.1738,1.8151c0,0-0.0282,0.096-0.0281,0.096c0.3833-0.0023,0.7665-0.0046,1.1498-0.0068
		l-0.035-0.1056c3.5167,0.574,5.4003,4.6902,8.0182,5.1333c4.3489,0.736,3.5675,4.111,5.1211,6.2206
		c3.4424-4.27,6.0834-0.1418,8.8513,1.009c2.6371,1.0964,5.3821,1.254,7.7751,0.4537c2.3427-0.7833,5.339-3.4102,3.2592-5.7448
		c-2.0427-2.2928-2.608-4.8892-3.8757-7.3086c-0.3539-0.6754-0.3541-2.1059-1.2347-1.5986
		c-4.8998,2.8229-6.3019-3.4127-10.1823-3.722c-5.1147-0.4078-5.9991-6.6456-10.3541-8.7092
		c-5.0503-2.393-11.899-2.1615-14.2485-8.9631c-0.0551-0.1589-1.168,0.1266-1.7736,0.0663
		c-5.3743-0.5349-9.9178-4.5869-10.3478-9.1801c-0.0763-0.815-0.501-2.1601-1.2883-1.0714
		c-2.7887,3.8564-4.6768,0.4651-6.8384-0.5881c-3.8109-1.8569-9.1151-2.2321-8.2522-8.7051
		c0.1754-1.316-1.2413-0.6155-2.1776-0.6482c-3.6332-0.1267-8.0563,0.5339-7.4771-5.5553c0.1788-1.8803-1.1185-3.4325-2.2595-4.8538
		c-4.3593-5.4295-15.9241-8.212-21.828-4.6672c-3.1431,1.8871-7.4778,4.3646-5.5562,9.1165
		c1.0686,2.6425,0.7489,4.7092,0.1615,7.0435c-3.5684,14.1778-7.5055,28.2553-10.7581,42.5219
		c-4.5388,19.9081-10.9404,39.2417-19.6438,57.7626c-0.9788,2.083-8.3748,4.7872-10.2332,3.7699
		c-1.1508-0.6299-1.1013-1.6571-0.6677-2.5702c1.6025-3.3754,1.382-7.0743,2.0906-10.5923c0-4.8685,1.2917-9.541,0.8909-14.5236
		c-0.3937-4.8931-1.5083-9.7045-3.1711-14.3187c-1.4077-3.9056-3.1138-8.7924-5.4788-12.2073
		c-2.6804-3.87-8.127-6.7576-11.8538-9.623c-1.9476-1.4974-4.7996-2.9888-6.6212-1.3406c-0.6558,0.5933-1.5909,1.5601-2.1625,0.8852
		c-0.3167-0.3741-0.1106-0.9327-0.0378-1.4175c0.3102-2.0643-2.3513-3.5421-4.3517-2.9452
		c-2.0004,0.5969-3.3462,2.4177-4.5435,4.1277c-0.2101-1.99-1.8459-3.7435-3.8167-4.0911c-1.9706-0.3477-4.1077,0.7404-4.986,2.5384
		c-2.4492-1.9086-5.1814-1.384-7.8916-0.7725c-0.548-2.7714-2.8489-3.5832-4.3236-5.7142
		c-16.84-24.3344-33.8966-48.5188-50.9087-72.7339c-21.604-30.751-43.2108-61.5001-64.8452-92.2296
		c-1.3591-1.9304-1.7318-3.4645-0.4451-5.8332c4.7983-8.8318,1.9778-18.9008-7.0795-22.7387
		c-6.6819-2.8313-12.1824-7.3404-18.4431-10.7006c-3.1531-1.6923-5.6427-4.9575-6.2699-8.0342
		c-0.6027-2.9553,3.8354-3.2612,6.0247-4.7803c0.9524-0.6609,1.8777-1.3864,2.7097-2.1914
		c9.2551-8.9537,19.9135-15.7247,31.4-21.5385c7.8274-3.9618,14.8149-9.4356,20.843-16.0474
		c4.5188-4.9564,7.1486-11.0811,8.4189-17.1304c0.7567-3.6028,1.8251-6.8627,3.1417-10.2019
		c1.3378-3.3926,0.6224-6.4359-1.9165-9.1765c-2.4834-2.6808-4.95-2.0602-8.0424-1.1128c-2.1813,0.6682-3.8842,1.6421-5.5242,3.0208
		c-3.8782,3.2603-8.2926,6.4211-13.307,5.9058c-12.8357-1.3193-25.5697,0.6355-38.3451,0.2754
		c-2.265-0.0637-4.6091,0.0593-6.0527,1.709c-8.1964,9.3655-19.8473,12.5198-30.5798,17.3318
		c-0.3865,0.1732-0.9871,0.3257-1.2936,0.1497c-3.0298-1.74-3.5516-9.1934-0.4684-11.4138
		c2.9962-2.1578,5.4434-5.4967,10.3906-4.1287c2.465,0.6816,6.34-0.3331,8.3275-2.0376c4.1071-3.5222,8.218-5.9304,13.4669-7.9092
		c8.7648-3.3042,16.8834-5.8054,26.0406-2.4706c2.6951,0.9814,5.9045,0.9757,8.3595-0.2338
		c9.9271-4.8911,20.6772-8.5565,28.0876-17.5105c0.9734-1.176,2.2299-1.9255,3.6205-2.5726
		c4.9332-2.2957,9.9192-4.5101,14.687-7.1176c3.0352-1.6599,4.8232-1.7385,6.7241,1.6704
		c8.8352,15.845,19.2,30.6082,31.2999,44.1899c26.2408,29.4542,57.1251,51.881,95.0403,63.9532
		c13.4579,4.285,27.0924,7.4667,41.1493,9.3088c10.5769,1.3862,21.1317,1.7515,31.6929,1.59
		c13.3721-0.2045,26.6703-1.8502,39.8142-4.4074c5.1693-1.0056,10.3644-2.1182,15.3495-3.7776
		c28.3179-9.4258,56.4626-20.059,81.7886-36.2542c8.0967-5.1776,15.8376-10.9108,23.1541-17.1425
		c3.5642-3.036,7.0281-6.1902,10.3828-9.4562c1.0891-1.0602,2.3577-2.1121,3.6418-3.1768c0.0107,0.0354,0.0229,0.0767,0.02,0.0696
		c0.0532,0.03,0.1113,0.0709,0.1694,0.1118l-0.175-0.1934c2.0652-1.7122,4.1689-3.4579,5.6299-5.3284
		c3.9546-5.0636,8.7759-9.4451,13.407-13.833c4.8442-4.5901,9.1616-9.5984,13.3799-14.6338
		c7.1787-8.5697,13.4834-17.8651,20.4548-26.6172c7.1248-8.9448,12.1086-19.2224,18.0022-28.8888
		c5.3525-8.7787,10.2285-17.9654,14.1948-27.6897c8.0439-19.7242,16.688-38.6407,22.6426-59.1996
		C1934.1213,391.9477,1938.3157,340.5539,1932.6777,289.507z M1247.0334,676.6119c-1.9456,3.7216-5.5071,6.3581-8.8679,8.3305
		c-9.6027,5.6357-16.1013,14.743-24.9098,21.1284c-7.3947,5.3605-15.4838,9.6208-24.3136,12.282
		c-6.217,1.8737-12.4369,4.1346-18.5916,5.7166c-10.2334,2.6302-19.536,7.4412-29.5516,10.3116
		c-4.3267,1.2399-7.386,4.3304-11.0499,6.4153c-6.9225,3.9391-11.8744,0.548-16.3992-3.1706
		c-6.1118-5.0229-13.5195-7.939-19.5062-12.9717c-4.4117-3.7088-10.0831-4.9991-14.6658-8.5104
		c-3.3522-2.5685-7.943-3.5189-11.9785-5.1982c-2.5375-1.056-4.3385-2.6935-6.2657-4.8642
		c-5.0952-5.7391-10.1293-11.7245-15.941-16.6329c-2.8956-2.4456-3.2235-4.8752-3.4055-7.5096
		c-0.3739-5.4158-2.3044-9.4604-7.243-12.0338c-3.4276-1.7859-5.1722-4.7894-5.8805-8.6489
		c-1.782-9.7118-8.1038-16.5253-15.2862-22.579c-6.4608-5.4459-13.1948-10.5685-19.8358-15.7987
		c-0.5564-0.4382-1.0507-0.8159-0.9216-1.5564c0.1409-0.8083,0.8301-0.9578,1.4971-0.9702
		c1.6637-0.0315,3.3284-0.0105,6.4094-0.0105c8.5157-1.1556,18.2637-2.9332,27.6707-6.4534
		c4.7902-1.7926,6.7462-5.0248,6.4287-9.9839c-0.0906-1.4141-0.4965-3.4939,1.2373-3.8488
		c0.9006-0.1842,2.3451,1.3699,3.2726,2.3861c5.7848,6.3386,6.9342,6.4404,14.3438,1.5068c1.3477-0.8973,3.0276-1.3994,4.626-1.7927
		c2.6024-0.6406,4.6786-1.7915,5.402-4.5417c0.8693-3.304,3.2781-3.7051,6.1683-3.5909
		c13.9709,0.5522,27.9828,0.5604,41.9072,1.6732c17.2427,1.3779,34.4237,3.6985,51.3101,7.5488
		c4.9072,1.1189,5.8701,7.0159,9.2456,10.233c1.446,1.3784,2.552,2.8512,4.5856,3.4752c2.2574,0.6929,5.3795,0.7303,5.2032,4.2581
		c-0.1492,2.9829,1.3199,5.9897-2.958,8.3872c-4.4041,2.468-5.8979,7.5536-5.2413,13.0274
		c0.8169,6.8087,3.8677,12.2724,8.7559,16.8801c2.7527,2.5947,5.8643,2.5458,9.3169,1.6619
		c4.0413-1.0347,8.0909-3.2886,12.3409-0.1895c1.2419,0.9055,2.9875-0.1147,4.3065-0.6601
		c6.1357-2.5374,12.4741-4.7751,18.1879-8.0758c3.798-2.194,4.9164-1.0907,6.5681,2.1025c2.439,4.7147,5.2834,9.2244,8.0592,13.7576
		c0.9951,1.6251,1.9143,2.806,4.5435,2.9493C1249.2476,671.2499,1248.0691,674.631,1247.0334,676.6119z M1671.3441,902.74
		c0.2262,0.1906,0.4523,0.3813,0.6783,0.5719c-0.3251,0.0039-0.6503,0.0079-0.9761,0.0132
		C1671.1455,903.1301,1671.2448,902.935,1671.3441,902.74z M1281.3333,1080.9075c2.5326-1.8,3.9823-3.5349,7.6091-0.0471
		c5.9596,5.7312,13.245,2.8978,15.6049-4.901c0.1407-0.465,0.5846-0.8772,0.6123-1.3307c0.163-2.651,1.8855-3.932,4.0804-4.8391
		c0.6212,1.9161,1.2423,3.8323,1.9618,6.0514c-2.7333,1.8738,1.0758,6.6714-3.7341,7.913c-0.707,0.1824-0.2379,1.0927,0.2778,1.5516
		c5.985,5.3265,6.1584,15.1987-1.9221,19.6888c-2.2283,1.2383-2.389,3.349-3.7894,4.8203
		c-1.5006,1.5769-2.3961,4.1097-4.4456-0.1018c-4.1577-8.5432-11.3717-14.9453-17.2852-22.2457
		C1277.7175,1084.2748,1278.7189,1082.7657,1281.3333,1080.9075z M1420.0906,1129.1189c0.0565-0.5754,0.0896-1.2678,0.2582-1.8521
		c0.1997-0.692,0.5897-1.2323,1.4342-1.246c1.2244-0.0199,2.501,1.2091,3.5254,1.7532c0.3076,0.1635,0.6101,0.3346,0.9075,0.5122
		c0.2267,3.1228,0.4534,6.2455,0.6763,9.3691c-0.3698,1.118-0.6489,2.2888-0.9495,3.2649
		c-1.5127,4.9119-3.6067,9.2528-5.6971,13.8907c-2.3763,5.2726-4.7255,10.5574-7.0698,15.8442
		c-0.6047,1.3638-0.7833,3.2728-2.8429,2.319c-1.7509-0.811-1.1154-2.5751-0.6127-3.9458
		c1.3955-3.8053,3.1666-7.8489,3.9728-11.8206c0.4124-2.0321,0.1652-4.0582,0.7688-6.1157
		c0.6329-2.1567,1.5884-4.2056,2.5435-6.2341c1.1536-2.4502,2.3032-4.9595,2.8453-7.6283
		C1420.4011,1134.5192,1419.8221,1131.8479,1420.0906,1129.1189z M1438.0886,1106.6466c-0.781,2.8142,0.2546,7.0721-4.9821,6.5798
		c-1.4249-0.1339-2.8899-0.3174-4.1655-0.8025c-0.1461-2.3569-0.3009-4.7125-0.4401-7.0707
		c2.3284-1.4412,5.4431-2.7213,7.3179-2.7654C1439.1167,1102.5105,1437.4303,1105.1119,1438.0886,1106.6466z M1463.978,1033.0345
		c-0.0483,0.6019-0.1932,1.1958-0.2932,1.7935c-0.892-0.3357-0.2318-1.2157-0.5554-1.6704
		c-2.3132-3.2509-6.0582-3.2325-9.4258-3.8113c-2.9467-0.5066-5.5808-0.3514-6.762-4.2864
		c-1.4659-4.8839,2.1208-7.7228,4.5863-9.0105c2.1191-1.1068,5.4772-2.6294,8.6646-1.5635
		c0.6157-0.0839,1.4379,0.0587,1.8159-0.2859c5.5016-5.016,3.4783-0.1364,3.2665,2.4445
		C1464.8268,1022.1066,1464.4178,1027.5718,1463.978,1033.0345z M1448.1282,1149.9513c2.3466-5.5481,4.9943-10.9612,7.7529-16.3151
		c-1.9897,24.1852-3.9958,48.3735-5.9575,72.5668c-0.0173,0.2633-0.0442,0.5254-0.0638,0.7883
		c-2.7299,5.1617-4.0864,11.0779-8.3096,15.4813c-0.2245,0.234-1.5651,9.334-1.8885,9.8674
		c-0.7183,1.1843-1.3668,2.4332-1.7933,3.7517c-1.155-11.3185-1.6471-22.7751-2.3749-34.1953
		c-0.5981-7.6605-1.1978-15.3223-1.7937-22.985c2.8026-4.5927,5.4371-9.2878,7.8889-14.077
		C1444.093,1159.9427,1445.9989,1154.9857,1448.1282,1149.9513z M1619.0137,1221.4338c0.3354,1.5835,0.6331,3.1732,0.9121,4.7656
		c-33.033,15.0435-66.2048,29.5762-99.2642,44.6096c-11.1964,5.0596-22.4055,10.2295-33.8555,14.1976
		c-0.0608-0.0959-0.1069-0.2-0.1265-0.317c-0.0936-0.5619,0.446-1.0519,0.9991-1.188c0.5531-0.136,1.1356-0.0414,1.7023-0.0973
		c1.6627-0.1642,2.9617-1.6311,3.4556-3.2272c0.4938-1.5961,0.3472-3.3105,0.1958-4.9744
		c-0.0033-0.0043-0.0051-0.0076-0.0084-0.0118c6.9342-8.2762,14.8566-15.3811,23.5826-20.8226
		c29.6189-18.9982,58.3201-40.0743,87.1001-60.9099c2.0432-1.4818,4.1189-2.8876,6.2092-4.2593
		C1613.7341,1199.6553,1616.6934,1210.4821,1619.0137,1221.4338z M1621.9702,1270.6709
		c-36.9756,14.5334-74.0608,28.5745-110.9911,43.3008c-0.0992-0.4609-0.2198-0.9159-0.403-1.3518
		c-0.5022-1.1957-2.0522-1.9011-3.0095-2.6759c-1.3545-1.0963-2.6263-2.2942-3.8011-3.5811
		c-0.1427,0.4579-0.7759,0.6753-1.1698,0.402c-1.0519-0.73,0.7966-3.9116,1.0815-4.7822c0.696-2.127,0.5482-4.066-0.7944-5.9197
		c-1.9485-2.6898-1.9524-7.0129-7.0234-5.2448c-0.6058-1.3921-1.76-2.3004-3.0964-3.0017
		c42.8491-18.1815,85.2081-38.2734,127.9039-56.9977C1622.5411,1243.975,1622.6711,1257.3733,1621.9702,1270.6709z
		 M1608.1584,1343.2694c-7.674-1.2419-15.3531-2.4475-23.0635-3.4318c-12.1938-1.7625-24.4177-3.3118-36.3278-6.4945
		c19.7399-5.4158,39.7411-8.2543,59.6079-12.5065c2.4913-0.4701,4.9808-0.974,7.4697-1.4873
		c-0.2543,1.2748-0.5021,2.551-0.771,3.8228C1613.5129,1330.554,1610.7189,1336.3917,1608.1584,1343.2694z M1595.0198,1379.4504
		c-28.1948-10.6312-56.3444-21.4159-84.3721-32.5234c0.3896-1.469,0.762-2.9348,0.953-4.469
		c0.1185-0.9524,0.2083-1.9078,0.2859-2.8643c9.8643-2.5181,19.8663-3.6862,29.6215-1.8997
		c21.6215,3.6746,43.3374,6.8469,65.0415,10.085c-2.4763,7.0815-4.7678,14.2279-7.4077,21.252
		C1597.8276,1372.5278,1596.449,1375.9996,1595.0198,1379.4504z M1576.1902,1418.0352c-0.332-0.1439-0.6621-0.2925-0.9949-0.4347
		c-25.6578-12.4684-51.6919-23.958-77.4075-36.2388c0.02-0.0391,0.0427-0.0765,0.0625-0.1156
		c1.2107-2.3848,1.7701-5.3625,3.4318-7.4491c2.4757-3.1088,4.558-7.0873,5.6715-10.9174
		c1.0842-3.7297,1.7739-7.5527,2.5858-11.3472c27.8969,10.6921,55.7677,21.4995,83.6969,32.1287
		c-4.2681,9.9287-8.9915,19.661-14.146,29.161C1578.1434,1414.5673,1577.1722,1416.3033,1576.1902,1418.0352z M1515.4041,1495.7659
		c-3.6843-8.2273-7.3345-16.4762-10.8821-24.7926c-9.4426-22.424-19.9688-44.1548-29.2793-66.6572
		c2.0466-1.6792,4.0708-3.3859,6.0596-5.1334c0.7561-0.6644,1.5248-1.2852,2.2982-1.8947
		c6.3444,4.6844,12.2422,10.0935,17.2173,16.6677c12.9408,18.7277,25.829,37.5112,38.6652,56.3478
		C1531.8882,1479.2037,1523.842,1487.7224,1515.4041,1495.7659z M1454.8838,1541.8271c-5.2947-23.3667-10.52-46.7642-15.781-70.145
		c-4.2786-17.6832-2.8575-36.7925-0.7212-55.3373c15.7227,35.0134,28.6971,71.8208,42.7278,107.9
		c-5.365,3.8569-10.8439,7.5554-16.4417,11.0663C1461.3127,1537.4155,1458.1411,1539.6838,1454.8838,1541.8271z
		 M1431.3304,1479.7705c-1.3524,24.9003-1.9391,49.7869-2.8721,74.6796c-10.1569,3.8339-20.6339,7.028-31.26,9.3605
		c1.7123-8.7498,3.4257-17.499,5.0265-26.2651c7.4473-36.2726,13.5461-72.7976,22.1113-108.8198
		C1430.2036,1444.4851,1432.702,1461.974,1431.3304,1479.7705z M1358.8645,1351.129c-37.626,1.7959-75.1907,1.9504-112.8311,3.9911
		c-5.5334,0.0323-11.0762,0.2316-16.6196,0.4526c0.9172-4.8314,1.9604-9.6323,3.1323-14.3928
		c2.0146-8.1844,4.3864-16.2758,7.0328-24.2784c39.9613,0.7462,79.8899,1.9705,119.8876,2.2815
		c0.521,0.8368,1.0229,1.6918,1.5292,2.5597c1.4513,2.4884,1.9393,4.8612,2.6573,7.6305c0.354,1.365,0.8572,2.6947,1.5438,3.9263
		c0.8569,1.5369,1.9868,2.9014,2.975,4.3574c1.9402,2.8589,3.322,6.0521,4.6923,9.2238c-0.1127,0.1605-0.2045,0.3344-0.3112,0.4989
		C1368.1649,1349.4847,1363.6211,1350.9119,1358.8645,1351.129z M1229.6956,1459.7311c-1.1993-5.9723-2.1608-11.999-2.9387-18.0548
		c31.4747-19.3369,63.0326-38.4512,94.5505-57.6769c11.5912-8.1876,24.376-13.7318,37.5189-14.5767
		c-10.0975,10.74-20.9752,20.4302-31.9381,29.9059c-30.3885,27.0386-60.1716,55.1716-90.939,81.6404
		C1233.2834,1474.1077,1231.1602,1467.0245,1229.6956,1459.7311z M1224.6089,1402.4041
		c30.5154-8.0789,61.0801-15.8265,91.7969-21.8599c-24.6938,17.9869-51.1531,32.0013-76.6356,48.1357
		c-4.5059,2.8519-9.0334,5.6571-13.5811,8.411C1224.9155,1425.593,1224.4042,1413.9928,1224.6089,1402.4041z M1228.5848,1360.2772
		c42.8168-1.4508,85.6239-2.8372,128.4427-4.5529c-8.8597,6.8792-18.2632,13.1537-28.5515,15.73
		c-34.4883,9.4172-69.1652,17.2753-103.7356,26.09C1225.1816,1385.038,1226.4707,1372.5696,1228.5848,1360.2772z
		 M1250.0105,1285.4642c-0.0022,0.2629-0.0045,0.5258-0.0068,0.7886c-0.2135-0.1299-0.4272-0.2599-0.6407-0.3898
		C1249.5789,1285.7301,1249.7947,1285.5972,1250.0105,1285.4642z M1254.1814,1279.2275
		c21.6008,4.7911,43.2119,9.5323,64.9287,13.7863c7.0486,1.1781,13.7805,3.4524,20.1758,6.5605
		c1.0481,5.3617,5.9946,9.4255,11.6062,8.6915c1.2876-0.1685,2.2451-0.1719,2.863,0.0956c0.1792,0.1312,0.356,0.2665,0.5344,0.399
		c0.3766,0.4911,0.3875,1.3103,0.0072,2.5842c-0.4963,1.6622,0.475,2.1757,1.3004,2.8704
		c-33.8552,0.601-67.5247-1.6046-101.3589-1.3906c-4.394-0.1564-8.8018-0.2037-13.2141-0.2201
		c1.9999-5.8055,4.1406-11.5636,6.4011-17.272C1249.5688,1289.9194,1251.828,1284.5526,1254.1814,1279.2275z M1265.4146,1254.552
		c0.25-0.3868,0.4785-0.7797,0.7156-1.17c17.5981,11.0013,35.0825,22.2257,52.4139,33.7212
		c-18.1565-1.2302-35.5851-6.5032-53.2777-10.1577c-3.0381-0.7155-6.0835-1.4015-9.1277-2.092
		c0.5947-1.3142,1.1848-2.6305,1.7831-3.943C1260.3271,1265.6329,1262.269,1259.4182,1265.4146,1254.552z M1285.6895,1222.8309
		c8.129,7.9414,16.2546,15.8898,24.4807,23.7062c9.9497,10.0448,20.3109,19.5433,30.5242,29.2396
		c-0.276,1.3593-0.6431,2.7018-1.0541,4.0126c-1.5631,4.9852-0.5275,9.0411,2.9453,12.7585
		c0.4056,0.4343,0.9521,0.7675,1.3317,1.2355c-6.7844-1.9336-13.3386-4.6218-19.3511-8.661
		c-18.6121-12.121-37.3868-23.9418-56.2069-35.6815c2.1276-4.0012,4.0411-7.9889,6.9109-11.4363
		C1279.1252,1233.3734,1282.3489,1228.0162,1285.6895,1222.8309z M1433.6768,1233.1095c0.2474,3.033,0.5188,6.0955,0.7052,9.172
		c-1.6886,0.4222-3.4738,0.7355-3.7631,0.7994c-2.229,0.4927-5.0214-13.4543-5.6184-15.4436
		c-1.7582-5.8586-3.4668-11.7335-5.0024-17.6549c-0.5298-2.0427,1.025-4.7988,2.0345-7.0377
		c2.6974-5.9832,5.1786-12.046,8.181-17.8531C1431.3303,1201.108,1432.4628,1217.1198,1433.6768,1233.1095z M1441.6808,1403.8351
		c1.1979-5.1663,2.3442-10.3783,4.0687-15.3796c1.6948-4.9155,5.9087-7.912,9.6659-11.1599
		c3.504,3.4335,6.5577,7.3885,8.6437,12.3624c0.7905,1.817,1.5905,3.6281,2.3823,5.4441c-2.21,2.8483-5.5929,4.9274-9.7985,6.1006
		c-1.1736,0.3274-2.7893,0.418-3.4487,1.1094c-4.1031,0.5962-8.6884,3.2007-11.8138,4.8721
		C1441.2844,1406.0826,1441.449,1404.8351,1441.6808,1403.8351z M1496.4966,1348.131c-0.5028,5.5946-4.5583,13.1111-6.9592,12.8978
		c-2.6898-0.239-11.4512-8.2692-10.623-10.0553c0.7283-1.571,0.7952-3.8875,1.6414-5.479
		c5.3837-0.7277,10.7249-0.7189,15.8712,1.0405C1496.5781,1346.962,1496.5552,1347.4789,1496.4966,1348.131z M1468.6987,1387.7476
		c0.1735,0.0985,0.3459,0.2,0.5193,0.2991c-0.025,0.2632-0.073,0.515-0.1113,0.7717
		C1468.9719,1388.4607,1468.8328,1388.1058,1468.6987,1387.7476z M1489.0166,1321.359c-0.4521,0.491-0.9192,0.968-1.3911,1.4407
		c-2.7031,0.5605-5.4113,0.796-8.1169,0.8093c0.0474-0.2389,0.1191-0.4612,0.2456-0.6462c1.9529-2.8596,2.4696-7.4276,7.4359-7.0944
		c1.7,0.1438,3.6575,0.084,4.3521,1.8291C1492.3662,1319.7681,1490.0333,1320.2548,1489.0166,1321.359z M1438.9292,1377.547
		c0.2053,0.0201,1.5853-0.0801,2.786,0.3368c1.354,0.47,2.8512,1.2976,0.8141,2.9351c-1.5415,1.2388-3.0696,2.8246-4.1184,4.4736
		c0.0809-2.5775,0.2184-5.1591,0.3928-7.7426C1438.8464,1377.5496,1438.8862,1377.5471,1438.9292,1377.547z M1393.245,1282.9895
		c0.1274,0.3888,0.2605,0.7739,0.3813,1.167C1393.3962,1283.834,1393.2639,1283.4343,1393.245,1282.9895z M1391.7935,1279.0186
		c-0.2795-0.2063-0.5876-0.4089-0.9551-0.6116c-1.6852-0.9296-1.907-2.8912-1.5969-4.58
		C1390.1975,1275.4795,1391.0486,1277.2111,1391.7935,1279.0186z M1364.408,1268.7902c-1.5891-0.7627-2.1497-1.6598-1.7076-3.4823
		c1.2188-5.0248-0.4034-9.6565-2.1718-14.2921c-1.5432-4.0455-1.9675-8.2135-2.2346-12.4304
		c4.9487,5.4868,9.9041,10.9656,14.8647,16.4379c-1.8743,3.9321-3.7826,7.8475-5.6123,11.7865
		C1366.9576,1268.0673,1366.6501,1269.8662,1364.408,1268.7902z M1380.6815,1237.7961c-1.5922,4.2494-3.4136,8.4098-5.3197,12.5345
		c-5.8093-6.2197-11.5856-12.4806-17.3369-18.7722c0.157-1.6204,0.6744-3.1802,1.8666-4.2417
		c0.7931-0.7063,1.8937-1.2295,2.1644-2.2565c0.3062-1.1609-0.6177-2.2366-1.1438-3.3157c-0.7927-1.626-0.7019-3.5228-1.0115-5.3051
		c-0.5178-2.9828-2.8142-3.4673-4.2993-5.7068c-1.6785-2.5309-1.9194-5.697-2.7461-8.5482
		c-1.6643-5.7406-2.0653-11.574-3.1378-17.3141c8.3251,13.3108,16.6788,26.5983,24.8473,40.0536
		c2.4939,3.9875,4.4777,8.318,6.125,12.8507C1380.687,1237.7819,1380.6841,1237.7891,1380.6815,1237.7961z M1322.9423,1176.9452
		c1.7726,1.4679,2.443,4.0751,2.6571,6.2668c0.4723,4.8346,1.3909,9.6207,1.7604,14.4651c-4.04-4.4895-8.0836-8.9744-12.127-13.4594
		C1317.7194,1181.6189,1320.2822,1179.1656,1322.9423,1176.9452z M1312.2185,1187.4801c5.1708,5.712,10.3364,11.4304,15.4961,17.156
		c0.1523,2.3965,0.4323,4.7631,1.1593,7.2188c1.6482,5.5665,4.9745,12.533,1.2351,17.9043
		c-1.069,1.5355-1.1343,3.9502-0.0764,5.2574c7.8202,9.6646,8.351,21.6489,10.8016,33.0079
		c0.1389,0.6436,0.218,1.2883,0.2723,1.9332c-17.5951-17.0283-35.233-34.0029-52.8934-50.9459
		c0.5601-0.8193,1.1257-1.6312,1.7051-2.4257C1296.7646,1207.1981,1304.0591,1196.6238,1312.2185,1187.4801z M1413.2358,1384.6105
		c0.3376,0.0344,0.8684,0.0687,1.3658,0.1031c-0.5804,3.3282-3.4712,5.516-6.3402,5.0834
		C1409.8644,1387.9902,1411.522,1386.2528,1413.2358,1384.6105z M1414.1088,1391.3594c0.8622-0.7996,1.6329-1.9635,2.5002-2.6752
		c0.9778,3.4723,1.89,7.0125,2.6355,10.6106c-2.5958,0.2312-4.054-2.1653-5.8663-3.543
		C1411.2002,1394.0961,1412.7111,1392.656,1414.1088,1391.3594z M1448.6775,1428.6228c-1.6372-4.1616-3.4531-8.2883-5.1006-12.5026
		c1.2178-0.0043,2.4368-0.0233,3.6414-0.0784c5.6124-0.2566,11.1436-1.7297,16.2339-4.0845
		c1.9558-0.9047,3.8472-1.9281,5.7256-2.9783c0.8907-0.498,1.7371-1.1165,2.5608-1.7719
		c13.3978,30.5975,26.9175,61.1168,40.3303,91.6945c-8.7383,8.1042-17.874,15.6998-27.3281,22.7034
		C1472.6526,1490.6547,1460.833,1459.5356,1448.6775,1428.6228z M1509.835,1418.3514
		c15.1914,10.5156,30.0593,21.595,44.8583,32.7938c-3.9447,5.3542-8.059,10.5979-12.319,15.7244
		C1531.4106,1450.8048,1520.5149,1434.6755,1509.835,1418.3514z M1509.646,1411.7617c-7.5519-5.1998-13.7048-12.3799-19.0049-20.38
		c0.9171-0.9529,1.791-1.9473,2.6143-2.9823c0.7256-0.9124,1.4032-1.8617,2.0509-2.8309
		c20.8145,8.6006,40.9122,19.1421,61.5109,28.345c5.626,2.8442,11.3052,5.5605,17.0077,8.2212
		c-5.041,8.5925-10.5037,17.0076-16.3553,25.1858C1541.6025,1435.3428,1525.7107,1423.41,1509.646,1411.7617z M1543.0205,1328.8219
		c-10.4172,2.3962-20.7742,2.0302-30.9243,0.3926c-0.1058-3.5096-0.3499-7.0149-0.6202-10.5161
		c17.7074-7.3888,35.6207-13.9572,53.5104-20.5229c18.8582-7.6832,37.729-15.3473,56.6802-22.6354
		c-0.8845,13.1315-2.53,26.21-4.9253,39.1514C1592.1865,1319.6241,1567.5664,1323.8125,1543.0205,1328.8219z M1495.1819,1175.4329
		c-0.1748,1.0979-0.7947,2.1926-1.2111,3.2231c-0.4655,1.1521-0.9261,2.3062-1.3761,3.4645
		c-1.7958,4.6224-3.4304,9.3228-4.5322,14.1639c-0.022,0.0968-0.0438,0.1937-0.0654,0.2905
		c-0.525,2.351-0.9199,4.7281-1.3916,7.0898c-0.4478,2.2421-0.7908,4.9646-1.8773,7.0004
		c-1.0558,1.9785-1.2623,4.5243-1.7119,6.7355c-0.5139,2.5273-1.0157,5.0571-1.5303,7.5844
		c-0.0514,0.2527-0.103,0.5054-0.1547,0.7579c-0.4932,2.4084-0.9863,4.8188-1.6107,7.1975c-0.3073,1.1703-0.802,2.3464-1.017,3.5338
		c-0.1543,0.8514-0.0599,1.6886-0.25,2.5516c-1.0833,4.9193-2.2769,9.8378-3.9363,14.5984
		c-0.0336,0.0959-0.0673,0.1919-0.1011,0.2878c-1.4376,4.0704-1.8323,8.5029-4.3989,12.2328
		c-4.7654,6.9252-9.1943,14.2802-18.8267,13.1042c-1.3431,0.0601-2.5663,0.0381-3.6853-0.0579
		c0.8358-9.1896,2.4645-18.2623,7.0338-26.4276c13.6605-25.7682,27.1912-51.627,40.676-77.5175
		C1495.2051,1175.3085,1495.1918,1175.3706,1495.1819,1175.4329z M1413.3444,1265.8552c1.6853,4.1174,0.1937,8.2826-1.3611,12.1824
		c-1.1232-1.8362-2.2074-3.7076-3.2332-5.6316c-1.5229-2.7587-2.5746-5.7634-3.3485-8.9003
		c0.3037-4.9025-1.7578-10.7885-1.2432-16.7607c0.0767-0.8898-0.4963-2.307,0.8135-2.459c0.6869-0.0798,1.6967,0.8721,2.2227,1.6017
		c0.6477,0.8982,1.04,2.0203,1.375,3.0977C1410.3033,1254.5637,1411.1034,1260.3806,1413.3444,1265.8552z M1405.8258,1133.0059
		c-0.0391,0.728,0.2927,1.8066-0.8477,2.0022c-1.3433,0.2303-1.5427-0.8394-1.7965-1.8287
		c-0.941-3.6703-1.9856-7.3156-2.8485-11.0037c-0.4612-1.9713-1.7524-4.1998,0.9651-5.6918
		c1.316-0.7225,2.7511-1.6926,4.1509-0.7117c2.0907,1.465,1.4473,4.0853,2.322,5.9517
		C1405.5233,1125.4025,1406.0271,1129.2552,1405.8258,1133.0059z M1405.5648,1036.6715
		c-2.4128,8.0118-7.8635,13.0039-15.9253,14.1741c-4.338,0.6298-6.9524,4.4985-11.2551,4.5472
		c-0.6207,0.355-1.28,0.5048-1.7694-0.1321c-2.1602-2.8109-1.3999-6.3157-2.0491-9.4738c-0.3927-1.9097,2.1492-1.5939,3.3191-2.3224
		c7.8646-4.8971,17.3447-6.2004,25.1582-11.239c0.6381-0.4114,1.3925-0.2988,1.8029,0.2441
		C1405.7847,1033.7112,1406.0443,1035.0789,1405.5648,1036.6715z M1380.7018,1160.2045c3.7134,11.2061,7.7357,22.3364,10.481,33.859
		c0.5194,2.1799,0.9578,4.1826,0.1045,6.2902c-2.4032,5.9348-1.9196,12.5516-5.2245,18.4558
		c-1.5945,2.8485-2.0582,6.1868-2.4192,9.384c-0.0459,0.407-0.1089,0.8143-0.1858,1.2217
		c-1.3409-3.3767-2.447-6.9066-3.2562-10.5984c-5.9056-25.5353-13.9664-50.0939-20.0269-75.5367
		c1.1759-0.8503,2.3527-1.6991,3.5199-2.5568c0.5768-0.4237,1.6094-0.2271,2.4307-0.3179c1.438-0.0957,2.2919,0.4104,3.1968,1.7092
		C1373.4066,1147.9772,1378.4446,1153.3926,1380.7018,1160.2045z M1368.9694,1062.349c-2.9102,1.9268-5.017-0.5139-6.3081-2.0643
		c-1.4375-1.7261-4.437-3.723-1.9268-6.995c1.6239-2.1163,3.3282-3.9337,5.9637-4.6658c0.1659-0.0092,0.4174-0.0938,0.4854-0.0167
		c2.3441,2.6605,2.4319,6.2975,3.9778,9.3405C1372.0444,1059.6862,1370.5535,1061.3,1368.9694,1062.349z M1346.3362,1160.5515
		c-0.6215-3.7488,0.7488-6.7477,3.0668-8.8455c2.2491-2.0354,4.6431-3.9124,7.087-5.7319
		c1.2771,5.0179,2.5481,10.0378,3.8186,15.0564c4.6802,17.3689,10.5154,34.2799,13.1359,52.4893
		c-8.8844-13.0258-17.2916-26.4833-25.5692-40.058C1347.3982,1169.1548,1347.0435,1164.8193,1346.3362,1160.5515z
		 M1237.8926,1485.7097c36.2983-33.324,73.0928-65.8735,109.6077-98.8405c7.5123-6.8553,14.6016-14.6166,23.0959-19.6542
		c1.3887-0.7815,2.7993-1.4559,4.2242-2.0597c0.8336,2.1274,1.6696,4.2542,2.5431,6.3655c0.0359,0.0869,0.0662,0.1605,0.0984,0.2383
		c0.0701,0.1569,0.1472,0.3304,0.2404,0.5404c0.3853,0.8779,0.7772,1.7529,1.1759,2.6249c1.4048,3.0366,2.869,6.0558,4.4883,8.9872
		c1.0134-1.5492,2.0225-3.1019,3.0543-4.6376c0.5768-0.8584,1.3378-1.6083,2.4491-1.4392c1.7899,0.2721,0.937,1.806,1.1495,2.7921
		c0.2141,0.9934,0.3173,2.049,0.4956,3.0593c-2.5265,4.8297-5.5679,9.2676-9.4854,12.9294
		c-20.782,20.1191-42.032,39.5148-62.7772,59.6709c-20.4976,20.5259-41.99,39.595-62.6016,59.9664
		c-1.7257-2.3315-3.3928-4.7026-4.9926-7.1154c-0.0004-0.0853-0.0455-0.2081-0.173-0.3997
		c-0.0151,0.0251-0.0304,0.0503-0.0455,0.0754C1245.5955,1501.4688,1241.3684,1493.7529,1237.8926,1485.7097z M1244.0422,1500.3336
		c-1.0002-0.2902-0.8505-1.1324-0.9087-1.875C1244.0181,1498.7886,1244.1575,1499.4966,1244.0422,1500.3336z M1258.3135,1519.7534
		c18.6177-18.6053,37.4441-36.9147,56.7722-54.4541c22.3845-21.0734,44.0126-43.384,67.1445-63.2777
		c-4.5178,13.7009-9.4468,27.6588-17.8135,39.1605c-24.1802,32.3873-48.9191,64.1387-73.322,96.3051
		c-1.9937,2.5947-3.9575,5.2386-5.9778,7.8181C1275.0103,1538.1439,1265.9696,1529.5038,1258.3135,1519.7534z M1295.9192,1552.1649
		c-2.5814-1.4595-5.1047-3.0166-7.5735-4.6537c14.5391-19.4816,29.417-38.62,44.2109-57.8523
		c8.6638-11.2069,17.0562-22.8125,26.5977-33.0835c-5.8916,20.62-15.491,39.6831-23.244,59.5089
		c-6.3667,15.0876-12.2294,30.4589-18.7692,45.463C1309.9011,1559.1483,1302.8043,1556.0575,1295.9192,1552.1649z
		 M1320.8722,1562.7214c9.5758-24.172,19.9963-47.9688,29.653-72.0999c11.1259-24.177,17.5139-52.376,36.299-70.9767
		c-3.7235,19.5306-9.0658,38.6862-13.776,57.9988c-7.674,30.0181-14.7461,60.186-22.4575,90.1949
		C1340.5399,1567.2426,1330.5859,1565.5988,1320.8722,1562.7214z M1354.6068,1568.0233
		c11.4652-47.2352,23.6643-94.2845,35.0677-141.5131c1.6478-8.8705,5.0648-17.1527,9.6111-24.604
		c4.3789,2.9191,8.8909,5.6691,13.6429,7.9424c0.4811,0.2302,3.6035,1.5688,2.7883,1.2797c1.7821,0.6321,3.5443,1.2562,5.3148,1.833
		c0.1409,3.3514,0.0396,6.7378-0.3898,10.1523c-2.5439,15.9038-6.1659,31.6774-9.093,47.541
		c-6.6732,31.2428-12.3397,62.6582-18.3905,93.9979C1380.3855,1567.1819,1367.4355,1568.4314,1354.6068,1568.0233z
		 M1432.2429,1552.9792c0.0759-2.0231,0.1475-4.046,0.2046-6.068c0.95-22.7047,1.1008-45.3599,2.9805-68.0819
		c6.4216,20.5076,10.5856,41.9995,15.2758,63.236c0.1461,0.7047,0.3026,1.4056,0.4518,2.1093
		c-1.3956,0.8312-2.8206,1.6255-4.3022,2.3519C1442.0715,1548.8706,1437.191,1551.0101,1432.2429,1552.9792z M1608.5148,1185.4894
		c-9.6876,7.1069-19.547,13.8618-29.5094,20.4053c-21.8052,14.3711-42.6948,30.7368-64.6926,44.6733
		c25.782-32.3727,51.8655-64.4305,78.5244-95.8214C1599.1912,1164.375,1604.3301,1174.7167,1608.5148,1185.4894z
		 M1577.762,1135.8059c4.5502,4.7455,8.6625,9.7762,12.3943,15.036c-29.37,35.1534-57.9712,71.1713-87.5219,106.1252
		c-1.9156,2.2947-3.9979,4.3351-6.1754,6.2162c0.1523-1.3076,0.3016-2.6157,0.4558-3.9229
		c0.4832-4.098,1.1775-8.1989,2.5679-12.0973c0.5347-1.4993,1.4277-2.8257,2.0778-4.281c0.6665-1.4918,1.2318-3.0289,1.6923-4.5966
		c0.5913-2.0129,0.9379-4.0596,1.199-6.1182c12.4276-21.3273,25.1721-42.4329,37.0743-64.1389
		c8.1644-14.3638,16.465-28.6295,24.9288-42.7786C1570.4117,1128.5602,1574.1915,1132.0824,1577.762,1135.8059z
		 M1546.3464,1111.2395c3.9235,2.2391,7.7341,4.6755,11.4166,7.2919c1.7921,1.2733,3.5537,2.5895,5.2833,3.9464
		c-18.2092,32.7863-37.1794,65.0177-56.0228,97.3584c1.4836-4.8884,2.9305-9.7878,4.3718-14.6888
		c0.0878-0.2986,0.1755-0.597,0.2633-0.8956c2.235-7.6036,4.1711-15.2673,5.9816-22.9987
		c1.2592-5.3768,2.1444-10.6703,4.0071-15.8511c1.8815-5.233,4.0143-10.2588,5.3539-15.67c0.0464-0.1879,0.0924-0.3759,0.1378-0.564
		c0.8348-3.4589,1.4835-6.9628,1.942-10.4913c0.2341-1.8021,0.1982-3.7593,0.618-5.5188c0.4205-1.7626,1.2159-3.5042,1.6976-5.2693
		c1.6318-5.9796,3.5237-11.8851,5.5217-17.7516C1538.5706,1105.2928,1543.4469,1109.5847,1546.3464,1111.2395z M1507.6046,1027.0787
		c0.876-1.1975,1.8237-2.3884,2.9386-3.3535c1.4103-1.2209,1.0957-5.2603,4.1241-3.5435c2.7332,1.5494,6.4669,1.6381,7.6532,6.132
		c1.4263,5.4023-3.8936,1.6163-3.4506,4.2883c-3.9989-1.2529-7.0986-2.2233-10.49-1.6511
		C1506.7209,1029.2308,1506.9619,1027.9575,1507.6046,1027.0787z M1506.507,1104.2831c2.4177,2.5925,2.5824,2.439,2.439,10.5679
		c-0.0485,2.7435-0.7412,4.7531-1.6854,7.2135c-1.1748,3.0612-1.6677,6.6112-2.403,9.8049
		c-0.6936,3.0133-1.3483,6.0355-1.9636,9.0657c-0.6466,3.1844-0.9403,6.6002-1.8341,9.7172
		c-0.884,3.0826-1.6689,6.1959-2.4181,9.3223c-15.8094,30.6534-31.4603,61.4133-47.9508,91.6113
		c-0.0623-4.897,0.012-9.8492,0.35-14.793c0.3915-1.0482,0.7028-2.1427,1.0819-3.1904c1.177-3.2516,2.5291-6.436,3.9099-9.6051
		c1.0134-2.3259,1.9078-4.8156,3.1309-7.0171c0.5505-0.991,0.8737-2.0804,1.2107-3.1566c0.3767-1.2021,0.4502-2.1377,1.4952-3.0059
		c0.7023-0.5834,4.2448-11.3049,5.0687-13.3138c0.7803-1.903,2.1138-3.5436,2.8567-5.4309
		c0.3335-0.8475,0.4712-1.7921,0.8096-2.6597c1.7158-4.3988,3.2087-8.8895,5.1912-13.1803
		c0.4177-0.9041,0.8564-1.7983,1.3219-2.6787c4.0789-7.7144,5.8143-16.6307,9.3805-24.6628
		c4.051-9.124,6.6479-18.8201,10.9114-27.7542c2.577-5.4001,3.9471-11.1702,6.5808-16.4968
		C1505.0323,1102.5327,1505.0898,1102.7635,1506.507,1104.2831z M1481.2417,1105.7574c0.98,0.5024,0.2073,1.4644-0.0203,2.1288
		c-3.5343,10.3214-5.7053,21.0387-8.9615,31.4186c-3.953,12.6008-7.5742,25.2896-11.2007,37.98
		c-0.5709,1.9979-3.5626,11.1132-6.5568,18.9969c2.1339-23.7987,3.9784-47.605,5.9043-71.4081
		c0.9893-2.1586,1.7754-4.4218,1.9658-6.8488c0.1592-2.0273,1.9155-2.3136,3.1307-2.7153c5.3251-1.76,9.9742-4.5487,13.8145-8.5867
		C1479.9618,1106.0458,1480.5282,1105.3916,1481.2417,1105.7574z M1352.9663,765.6717
		c15.0803,21.6133,30.2922,43.1348,45.4611,64.6863c17.1255,24.3317,34.1848,48.7108,51.4568,72.9383
		c4.6016,6.4545,9.8767,12.4289,14.8408,18.6252c0.9525,1.1893,1.8964,2.3855,2.8442,3.5785
		c-2.6703,1.2861-5.1946,9.7326-6.6461,12.4339c-1.1892,2.2133-2.3785,4.4269-3.5062,6.6721
		c-4.3715,8.7032-9.5082,19.3341-10.6879,29.112c-0.5278,4.3765-0.3708,4.7745-3.8588,7.8558
		c-5.3729,4.7465-14.0842,5.7125-20.8973,8.1444c-8.0667,2.8793-16.1331,5.7585-24.1996,8.6379
		c-10.8099,3.8585-22.326,6.499-32.2445,12.4809c-1.662,1.0024-4.5754,4.1972-6.4209,3.1238
		c-1.585-0.9219-2.3364-7.8329-2.8156-9.6125c-0.3829-1.4227-0.766-2.8455-1.1489-4.2681
		c-1.4447-5.3668-2.8893-10.7336-4.3341-16.1004c-2.1628-8.0349-4.5869-16.1402-5.9863-24.3528
		c-1.2471-7.3198-4.1624-14.307-5.2892-21.7023c-4.3333-28.4391-9.6073-56.6587-14.0739-85.113
		c-2.907-18.52-7.053-36.6865-11.139-54.9171c-2.6229-11.7022-5.6038-23.3394-7.4338-35.2028
		c-2.3689-15.3564-4.4764-30.7532-6.7124-46.1301c-0.1658-1.1402-0.4082-2.2718-0.6653-3.3958
		c-1.6272-7.1143-1.5588-6.9639,4.8656-10.0976c3.1641-1.5433,4.8081-0.8364,6.7483,2.0052
		C1324.9653,725.3451,1338.9202,745.5407,1352.9663,765.6717z M1417.1158,541.554c-6.0236,2.6638-11.1331,7.5566-17.9137,7.7916
		c-5.7018-1.4247-9.9365,2.3622-13.9515,4.3129c-6.3722,3.0958-13.064,3.3359-19.4971,4.5293
		c-7.7032,1.4286-15.6082,2.9258-23.592,2.592c-1.5918-0.0665-3.7803,0.2974-4.4167-1.3933
		c-0.5387-1.4309,1.4434-2.374,2.3074-3.5435c3.2732-4.4312,8.723-5.0239,13.151-7.3157
		c16.1355-8.3513,32.6552-15.9675,48.703-24.4773c5.2543-2.7864,9.973-2.6384,14.4037-0.0282
		c3.099,1.8258,3.1136,6.3645,4.7242,9.5826C1423.2758,538.0835,1420.3831,540.1091,1417.1158,541.554z M1869.1985,328.8405
		c0.1433,3.9363,0.2805,7.8739,0.3635,11.812c-6.8958,0.5017-13.7866,1.0452-20.6606,1.7214
		c-13.9104,1.1726-27.7954,2.5488-41.7822,2.345c20.0923-9.4568,41.1611-16.6339,61.7163-25.0339
		C1868.9729,322.7404,1869.0874,325.7946,1869.1985,328.8405z M1868.6118,315.1386c-22.9878,8.988-46.1455,17.5618-69.0591,26.7255
		c-16.7637,7.137-35.1836,8.131-53.1445,7.927c22.3176-14.8088,45.6545-28.0378,68.9404-41.2665
		c15.9717-9.7771,31.9578-19.5435,48.0647-29.1038C1866.6921,290.9934,1867.9463,303.0456,1868.6118,315.1386z M1852.821,246.6082
		c5.3274,8.8999,9.0674,17.5724,9.1812,28.2057c0.031,0.0925,0.0576,0.1863,0.0884,0.2789
		c-39.2258,23.3032-78.6941,46.1981-117.644,69.9574c-9.6475,6.4795-21.005,7.8384-32.3236,8.4766
		c-0.049-0.3683-0.0978-0.7366-0.1393-1.1049c-2.0481-1.436-4.1284-2.8264-6.2805-4.1031c-0.3652-0.2166-0.7371-0.4214-1.104-0.6349
		c5.9934-11.1047,12.385-22.3544,23.4658-29.0402c40.9287-25.639,80.792-52.9348,121.2363-79.304
		C1850.321,241.868,1851.4507,244.3188,1852.821,246.6082z M1830.9414,201.3752c4.2878,6.3923,8.1145,13.0979,11.4546,20.0299
		c2.1016,4.3617,3.6289,9.0646,5.2861,13.6606c-29.4834,19.5358-59.1682,38.7722-88.6377,58.3695
		c-11.439,7.5701-22.8524,15.2678-34.9539,21.7419c5.9104-13.7385,14.6492-26.177,25.9861-35.9904
		c27.4133-24.3419,53.2466-50.3916,79.2329-76.2372C1829.8452,202.4157,1830.3982,201.9008,1830.9414,201.3752z M1805.2849,172.1621
		c0.7385,0.6416,1.4734,1.2891,2.2012,1.947c7.959,7.1934,15.0422,15.2961,21.2307,24.04
		c-7.5657,7.4866-15.311,14.7935-23.2024,21.9545c-20.0759,18.2755-38.5974,38.1825-59.0045,56.1011
		C1765.5793,241.2312,1785.0474,206.469,1805.2849,172.1621z M1801.4312,168.9358
		c-22.2458,38.4829-43.4944,77.5386-66.0288,115.8588c-4.6625,8.0546-11.6432,14.3247-18.8784,20.0089
		c10.9805-37.4944,25.6294-73.7905,37.3489-111.0553c4.9998-14.9656,10.1726-29.8732,15.5515-44.7122
		C1780.7725,154.2872,1791.5354,160.912,1801.4312,168.9358z M1764.9946,147.0648c-13.2345,41.1527-27.8867,81.8221-41.949,122.7167
		c-4.4835,12.6682-7.6936,25.8203-13.1204,38.157c-5.0952,11.8013-15.8976,19.4991-25.4514,27.4771
		c-2.7769-14.1973-7.8723-29.0574-3.1844-43.4586c15.3842-51.8746,30.1515-103.9476,45.0594-155.973
		C1739.6277,138.1137,1752.6274,141.7964,1764.9946,147.0648z M1721.6858,135.3034c-0.9968,4.322-2.0908,8.6196-3.353,12.8706
		c-14.3434,47.7151-26.7509,96.0166-41.6036,143.579c-4.0255-12.8719-7.0061-26.4066-4.9425-39.9667
		c5.0732-39.1755,9.6978-78.407,14.6564-117.5967C1698.2137,133.3929,1710.0396,133.7601,1721.6858,135.3034z M1681.8354,134.5666
		c-2.8361,25.0898-6.4873,50.0894-9.1062,75.1887c-1.2231,12.209-2.9554,24.3672-5.7834,36.3214
		c-6.3793-34.9576-13.6625-69.7476-20.2058-104.6718C1658.1877,137.9592,1669.9675,135.6766,1681.8354,134.5666z M1620.494,151.656
		c7.1385-3.4773,14.5087-6.4485,22.0356-8.9197c7.0297,35.7446,13.9176,71.5247,20.9261,107.2913
		c2.8022,13.0249,1.6558,26.4319-0.9938,39.355c-6.3182-12.9482-10.9806-26.5596-16.0759-40.0178
		c-12.2155-30.7361-24.506-61.4673-35.9655-92.4946C1613.7365,155.0523,1617.0945,153.312,1620.494,151.656z M1593.3853,167.1615
		c4.2505-2.8193,8.5933-5.4991,13.0171-8.0377c15.7725,39.717,30.8494,79.7368,46.5313,119.4769
		c3.6177,8.9977,7.6177,18.2245,7.5413,28.089c-0.0194,7.8232-1.1433,15.5717-2.2865,23.3029
		c-2.6683-0.1993-5.344-0.3118-8.0199-0.2355c0.0767,0.3033,0.1479,0.613,0.2495,0.8871c0.1262,0.5616,0.2031,1.1055,0.2368,1.6315
		c-4.9607-3.6855-9.8704-7.448-14.4084-11.6692c-7.0823-6.3977-10.3945-15.5994-14.0886-24.1379
		c-15.76-38.3809-32.5432-76.3569-48.5515-114.6432C1579.9382,176.5977,1586.5427,171.7002,1593.3853,167.1615z M1649.8716,407.8642
		c-0.1604,1.6768-0.3301,3.3613-0.522,5.0471c-0.9633-0.2935-0.509-1.2373-0.326-2.0911
		C1649.2415,409.8044,1648.5414,408.2434,1649.8716,407.8642z M1633.61,411.9548c-0.2422-1.1167,0.2667-1.4108,1.2379-1.3018
		c0.4648,0.0521,1.0682,0.0382,0.5933,0.8132c-0.4722,0.5837-0.5704,1.6599-1.5914,1.5649
		C1633.0505,412.957,1633.6893,412.3202,1633.61,411.9548z M1567.7767,186.7964c0.7529-0.6643,1.5145-1.3186,2.2759-1.973
		c8.6996,20.4642,17.1788,41.0182,25.9661,61.4318c7.923,19.5757,17.4769,38.5394,23.6935,58.7776
		c-11.9233-6.5251-22.5981-15.5227-29.5789-27.3496c-13.7319-22.6086-29.6549-43.7644-43.4634-66.2966
		c-0.5188-0.8313-1.0537-1.6521-1.5811-2.478C1552.2598,201.1682,1559.8458,193.7927,1567.7767,186.7964z M1541.8687,212.4443
		c3.519,5.4808,7.0293,10.9666,10.5337,16.453c9.9103,14.9619,20.9673,29.2357,28.8396,45.4467
		c-18.6368-13.9408-36.4834-28.8682-54.3372-43.7854C1531.6345,224.3208,1536.6324,218.2815,1541.8687,212.4443z
		 M1524.0481,234.3923c20.4178,16.856,41.1876,33.2854,61.5505,50.2239c10.5728,8.5642,17.6299,20.3909,24.1772,32.0906
		c-34.4058-18.3269-68.2241-37.7156-102.1545-56.895C1512.5953,251.0158,1518.0919,242.5395,1524.0481,234.3923z M1492.5021,291.518
		c0.8278-1.9817,1.6556-3.9636,2.4835-5.9456c3.1324-7.4995,6.6448-14.7969,10.4927-21.8939
		c33.9902,19.1307,67.8534,38.4869,101.9028,57.514c9.0718,4.4392,15.0479,12.3154,19.9568,20.8351
		c-5.4287,0.4943-10.9501,0.3571-16.3569,0.4808c-1.7788,0.0408-3.567,0.0752-5.3425,0.223
		c0.4969,0.007-4.5508,0.7432-5.1274,0.8717c-1.613,0.3594-3.2162,0.7556-4.8132,1.1742c1.3411,0.5162,2.6843,1.1624,4.0396,1.8175
		c1.7408,0.8417,3.8254,1.4244,2.8877,3.7173c-0.3579,0.8754-0.8451,1.718-1.5051,2.3525
		c-2.8813-0.7992-5.6995-1.8892-8.4135-3.3833c-34.5225-16.8857-69.1356-33.6118-103.7758-50.277
		C1490.0764,296.4951,1491.2634,293.9984,1492.5021,291.518z M1613.2129,433.8589c-0.1912,0.1279-0.3779,0.2666-0.5679,0.3975
		c0.0527-0.0061,0.1052-0.0104,0.1577-0.0176c-0.1641,1.6937-0.3981,2.3647-2.8839,2.1807
		c-0.0763-0.0056-0.1559-0.0083-0.2328-0.0137c-1.8008,1.3662-3.5891,2.7754-5.4414,4.0675
		c-0.1085,0.0985-0.2114,0.1964-0.3466,0.2981c-2.2267,1.6743-4.4103,3.4167-6.6324,5.0996
		c-0.3695,0.635-0.9546,1.1095-1.7518,1.3029c-0.6591,0.4814-1.3263,0.9502-1.9978,1.4121
		c2.2101-2.7439,4.4232-5.4856,6.6295-8.2325c3.548-4.4686,6.8875-9.1543,10.5093-13.5774
		c1.9778-1.0775,3.8289-2.3483,5.3918-4.0953c1.3354-1.4927,2.6194-1.0459,3.9833-1.1482c2.1022-0.1577,2.4938,1.1848,1.1501,2.3188
		c-2.3058,1.9458-3.798,4.84-6.2799,6.6044C1614.9908,431.6959,1614.5234,432.9821,1613.2129,433.8589z M1559.3057,453.2192
		c2.4485-0.2944,4.6672-0.7185,5.5658-4.7173c0.9741-0.8262,1.9492-1.6511,2.9232-2.4774c2.0278-0.9076,4.6948-1.6614,6.6335-2.4935
		c7.9293-3.4033,16.7781-5.4701,23.6145-10.3674c0.9519-0.6819,1.9495-1.2734,2.9695-1.8181
		c-5.7493,7.8135-11.8779,15.3561-18.1069,22.8009c-0.2041,0.0699-0.4026,0.1489-0.6093,0.2152
		c-2.4565,0.7883-4.8627,1.8982-7.0918,3.2026c-10.1799,5.9575-19.8676,12.9871-30.5737,17.7322
		c-6.9469,3.0789-13.3723,7.6053-20.9298,9.1925c-1.5802,0.3318-2.6248,1.53-3.9126,2.2091
		C1532.9579,475.5354,1546.135,464.3813,1559.3057,453.2192z M1516.3267,483.8863c9.5249-10.9138,19.62-21.1237,32.5916-27.8105
		C1538.3158,465.6311,1527.3103,474.7502,1516.3267,483.8863z M1487.1187,303.0719c11.1393,5.472,22.2766,10.9513,33.4885,16.2855
		c23.6934,12.0818,48.304,22.354,71.6663,35.0984c-15.0824,1.2234-30.5721,1.6821-45.2468-2.7784
		c-23.3878-6.7936-46.8693-13.2833-70.3785-19.6876C1479.5359,322.1877,1483.0088,312.5337,1487.1187,303.0719z M1475.4489,336.1897
		c21.9009,5.9937,43.74,12.2097,65.4889,18.6992c-20.3306,3.0332-40.9668,2.1666-61.4503,2.855
		c-3.0292,0.0316-6.0585,0.0907-9.0878,0.1404C1471.7898,350.589,1473.468,343.3523,1475.4489,336.1897z M1469.5837,362.3596
		c24.5391-0.5267,49.0757-1.108,73.5961-2.1433c14.2684-0.9368,28.3883,1.4846,41.8314,6.0422
		c-3.0356,1.395-6.2954,2.304-9.775,2.7097c-2.5477,0.2969-4.3409,0.4708-2.7003,3.8082c0.3652,0.7429,0.5251,1.4408,0.5369,2.0961
		c-31.8834,6.5631-64.0701,11.7129-95.9036,18.5303c-3.8364,0.6794-7.6636,1.4241-11.4873,2.1958
		C1466.3982,384.4353,1467.6721,373.336,1469.5837,362.3596z M1465.1072,427.818c-0.2489-9.3234-0.1489-18.6396,0.3267-27.9172
		c34.552-6.615,69.1567-12.9808,103.6886-19.7089c-2.7831,1.9998-1.7184,4.3667-0.5432,6.4573
		c1.2369,2.2002,3.201,4.0205,6.1007,1.8019c1.949-1.4912,4.9399-0.3647,6.7377-2.7581c0.4456-0.5934,2.8905-0.4441,3.7155,0.2263
		c0.7773,0.6317,0.0242,2.1915-0.489,3.4222c-2.0078,4.8152-6.7413,6.4043-10.587,8.6631
		c-7.3605,4.3228-15.1152,8.0283-22.9086,11.5411c-5.3448,2.4092-10.645,4.8558-16.4615,6.4336
		c-4.1675,1.1302-8.9409,3.2015-12.1632,7.1884c-0.2678,0.3315-0.584,0.6283-0.9233,0.907
		c-13.9893,3.3059-27.9622,6.6794-41.8833,10.2633c-4.7996,1.0258-9.577,2.1498-14.3475,3.3027
		C1465.282,434.3664,1465.1947,431.0921,1465.1072,427.818z M1465.5594,442.2339c9.2089-2.1997,18.4166-4.4016,27.6251-6.5999
		c-5.49,2.579-11.1216,4.8549-16.4868,7.6655C1470.5063,446.5432,1466.3574,450.8138,1465.5594,442.2339z M1480.2018,491.9487
		c-0.431-0.0505-0.9774-0.3674-1.1959-0.7273c-0.483-0.796,0.422-0.7305,0.7211-0.7515c6.4337-0.4547,11.0065-5.0063,16.4923-7.5286
		c7.8423-3.6055,15.5284-7.5554,23.2285-11.4624c1.5723-0.7977,2.8429-2.1782,4.3927-3.0375
		c0.578-0.3204,1.8156-0.2083,2.2931,0.2194c0.7751,0.6945-0.0513,1.5293-0.5796,2.0715
		c-5.7954,5.9478-11.2323,12.333-17.5786,17.626c-4.5964,3.8333-10.8939,4.3579-17.2828,4.7092
		C1487.4459,492.7296,1483.8201,492.3723,1480.2018,491.9487z M1527.8025,576.4124c-3.595,0.1709-6.0369-4.1946-5.2705-7.7112
		c0.7664-3.5165,3.6041-6.1631,6.4015-8.4275c2.7974-2.2645,5.823-4.5408,7.2538-7.8433c1.4309-3.3024,0.4623-7.9602-2.9294-9.1639
		c-3.9673-1.408-7.7375,2.5491-9.6556,6.2968c-2.9821,5.8264-5.6415,9.1389-12.1987,10.6648
		c-2.3612,0.5493-4.4272-2.5317-3.4877-5.2241c6.6003-8.3572,13.2297-16.691,19.887-25.0029
		c3.9712-3.2578,9.129-4.6515,14.1509-6.3284c3.5754-1.1938,7.0171-3.4634,10.4694-5.3145
		c10.0839-5.4069,19.913-11.2891,29.8374-16.993c0.9698-0.5574,2.1691-1.4368,3.0109-0.5946
		c2.1714-1.3481,4.7913-2.2135,7.4004-2.8357c1.8179-1.9694,4.6255-3.2484,7.4467-4.2848
		c-4.4224,5.8123-8.8202,11.6433-13.1696,17.5115c-17.312,24.1625-36.1796,47.1628-53.6033,71.2514
		C1531.3872,580.488,1529.5305,578.491,1527.8025,576.4124z M1536.8051,585.6453c15.8929-22.175,32.1011-44.1233,49.1246-65.4352
		c7.7085-10.0435,15.2246-20.2461,22.7799-30.4182c0.3468-0.2823,0.6868-0.5807,1.0114-0.9185
		c0.9297-0.9675,2.2361-0.7765,3.3799-0.694c1.2839-0.8553,2.7235-1.4303,4.2346-1.7603c0.0076-0.0615,0.0149-0.1229,0.0225-0.1843
		c0.0978-0.7848,0.7982-2.205,0.9111-2.1749c4.5293,1.2062,6.1785-3.6301,9.652-4.5328l0.0012-0.0012
		c0.2194,0.1157,0.4374,0.2327,0.6555,0.3496c-0.1167-0.2192-0.2334-0.4382-0.3501-0.6573
		c3.5055-1.0898,6.7284-2.7806,9.8818-4.5975c-1.1425,4.1038-2.5884,8.1204-4.4619,11.9951
		c-17.7572,35.4551-36.3041,70.4513-54.3673,105.7536c-2.5642,4.9277-4.9918,9.9691-7.9397,14.6823
		C1558.8083,601.4775,1546.7,594.4136,1536.8051,585.6453z M1599.3137,617.1146c-7.6722-2.1847-15.7063-4.9048-23.6543-8.2054
		c11.6637-23.6069,24.0089-46.8645,36.1802-70.2197c6.4712-12.3364,12.5344-24.9789,20.2285-36.6529
		c-0.8407,20.391-6.1907,40.1961-9.2988,60.2813c-3.5664,19.0667-6.1631,38.3575-10.6001,57.2457
		C1607.9021,619.0986,1603.6348,618.345,1599.3137,617.1146z M1653.1377,518.2985c-0.2625,33.6537,0.3972,67.3076-0.1946,100.9614
		c-5.9392,0.6505-11.9113,0.9977-17.8833,1.0142c-6.058,0.0167-11.9385,0.0746-17.7789-0.2798
		c4.1-28.2957,9.9733-56.3302,14.609-84.5419c4.6855-20.7024,5.0039-43.2204,13.9622-62.5795
		c2.2351-1.4685,4.5331-2.8275,6.9653-3.9584C1653.5178,485.3647,1653.0487,501.8315,1653.1377,518.2985z M1657.6968,618.6707
		c-0.5288-50.4753,0.1575-100.9482-0.2537-151.401c-0.0104-0.1447-0.0098-0.2885-0.0189-0.4329
		c1.0001-0.4469,1.9999-0.8949,2.9998-1.3423c1.443-5.1655,8.6272-3.7767,11.8333-6.9692c1.4296-1.4235,1.7318-0.3854,1.8123,0.8763
		c1.9819-0.8823,3.9641-1.7651,5.9479-2.6476c-1.1498-2.4559-0.5459-3.9546,2.7192-5.0757
		c2.0806-0.7145,4.0415-1.6854,6.0023-2.6705c0.8341,2.6063,1.485,5.2732,1.8749,8.0151
		c1.5541,15.2681,1.8854,30.6633,3.0063,45.9822c1.38,34.7138,4.2637,69.3339,6.2722,103.9948
		C1686.439,612.7692,1672.1991,616.6628,1657.6968,618.6707z M1729.0819,595.3804c-6.4567,2.8777-13.6566,4.1243-20.2682,7.4639
		c-1.5514,0.7837-3.1179,1.5356-4.6938,2.2668c-0.8208-12.735-1.4895-25.4819-2.4487-38.2053
		c-1.7327-35.2002-5.0193-70.3238-5.4524-105.5496c10.7769,13.2034,18.3176,28.7771,21.6809,45.5233
		c6.3051,27.5634,13.7825,54.8634,20.418,82.3527C1735.3115,591.6208,1732.1938,593.9933,1729.0819,595.3804z M1759.6096,572.407
		c-5.3352,3.8848-10.028,8.524-15.2505,12.1638c-0.8047,0.5608-1.6267,1.1786-2.4609,1.825
		c-1.4175-5.9386-2.84-11.8762-4.3813-17.7822c-5.1719-21.1812-11.21-42.1331-15.3628-63.5439
		c12.6875,17.46,23.1586,36.3472,34.1392,54.8778c1.9946,3.478,4.0432,6.9253,6.1116,10.361
		C1761.4749,571.0106,1760.5515,571.7212,1759.6096,572.407z M1766.0703,567.4735c-14.0022-23.2435-27.8911-46.5609-41.8269-69.8466
		c-9.554-15.3442-13.2225-33.3141-15.9486-50.9268c28.5339,30.4592,54.2147,63.4928,81.2198,95.2775
		c0.5403,0.6229,1.0786,1.2466,1.6187,1.8695C1783.4792,552.4253,1775.0818,560.3347,1766.0703,567.4735z M1808.5271,521.7295
		c-4.5222,6.3972-9.2512,12.6531-14.3286,18.6191c-23.8472-28.126-47.3423-56.5572-71.2036-84.6765
		c-4.3718-5.1501-9.1571-10.1382-13.2062-15.6016c0.9788-3.0972,1.8597-6.2234,2.6088-9.3853
		c1.5513-6.5496,2.7994-13.1599,3.9287-19.7935c-0.2019-0.1353-0.4319-0.2548-0.731-0.3354
		c-2.4813-0.6697-1.506-2.1686-0.7366-3.2681c0.3054-0.4364,0.6514-0.6876,1.0144-0.7988
		c4.9862,2.4048,9.6057,5.4221,13.3892,9.6748c28.8364,31.5337,57.9536,62.823,86.8618,94.2771
		C1813.6807,514.239,1811.1597,518.0051,1808.5271,521.7295z M1818.6746,506.4206c-7.5957-8.0967-15.157-16.2231-22.5867-24.4695
		c-20.5598-23.042-42.6736-44.7073-62.2397-68.616c14.8784,3.4919,29.7822,8.1819,42.5461,16.8226
		c20.0249,14.7971,40.0027,29.6642,59.9365,44.5944C1830.9058,485.5471,1825.0977,496.1135,1818.6746,506.4206z M1838.3298,470.7319
		c-17.0381-12.7295-34.0178-25.5363-50.802-38.5861c19.9495,6.329,39.6909,13.2712,59.3896,20.3381
		C1844.1389,458.6338,1841.2866,464.7163,1838.3298,470.7319z M1855.6492,429.6837c-0.5178,4.1122-2.1904,7.9772-3.845,11.7773
		c-0.9927,2.2799-1.9944,4.5483-3.0012,6.8114c-21.0481-7.5225-42.1101-15.0005-63.2881-22.1675
		c-13.6809-4.3076-25.4004-12.8463-35.9219-22.3281c29.7058,2.8037,58.9531,9.074,88.4553,13.4836
		c6.332,1.2114,12.6848,2.3096,19.0457,3.3613C1856.5273,423.6252,1856.032,426.6425,1855.6492,429.6837z M1857.978,416.2165
		c-36.762-6.4919-73.7166-11.6787-110.4233-18.3787c-12.4072-1.8607-21.6556-10.8584-30.6995-18.7598
		c11.6936-4.741,23.5403-11.2153,36.5845-10.1448c37.6497,3.8286,75.3,7.8654,112.9695,11.6846
		C1863.9512,392.6384,1860.4939,404.342,1857.978,416.2165z M1869.6145,350.5261c-0.0542,3.5586-0.2,7.1157-0.4365,10.6667
		c-0.3418,5.1343-1.0439,10.1663-1.9436,15.1381c-36.8374-3.6359-73.665-7.4476-110.4316-11.6797
		c13.5027-7.3153,27.9988-13.4325,43.5144-14.2482c23.1238-1.4648,46.2188-3.3508,69.3157-5.2146
		C1869.6453,346.9676,1869.6416,348.7468,1869.6145,350.5261z"/>
	<path d="M789.5095,479.3633c1.1128-0.0885,0.4658-1.9143,0.7511-3.484c-0.1454-0.618-0.3989-1.6954-0.6525-2.7728
		c-1.0389,0.8972-0.5785,2.1104-0.5931,3.1819C788.9998,477.3874,788.7056,479.4272,789.5095,479.3633z"/>
	<path d="M767.3099,1305.2114c0.0242,0.5857,0.0486,1.1714,0.0728,1.7571c0,0,0.0283-0.0448,0.0283-0.0549
		c0.0206-0.3002,0.0924-0.5985,0.0474-0.8781C767.414,1305.7621,768.3594,1305.2881,767.3099,1305.2114z"/>
	<path d="M432.5006,1401.4449c-0.1912,0.0634-0.3821,0.1292-0.5726,0.1979c0.1374,0.0638,0.2748,0.1276,0.4122,0.1914
		C432.3936,1401.7045,432.4472,1401.5747,432.5006,1401.4449z"/>
	<path d="M431.928,1401.6428c-0.0539-0.025-0.1077-0.05-0.1616-0.0751c0,0,0.0491,0.1235,0.0479,0.1144
		C431.852,1401.668,431.8902,1401.6565,431.928,1401.6428z"/>
	<path d="M1055.3865,456.6544c-0.0692,0.202-0.1384,0.4039-0.2078,0.6058c0.2019-0.0708,0.4037-0.1415,0.6055-0.2122
		C1055.6516,456.9168,1055.519,456.7856,1055.3865,456.6544z"/>
	<polygon points="441.2971,1391.2273 441.5252,1390.9995 441.5034,1390.948 	"/>
	<path d="M473.0961,1397.5488c0.0145-0.0558,0.0308-0.0952,0.0463-0.1426c-0.0516,0.0006-0.1031,0.0011-0.1547,0.0017
		C472.9876,1397.4078,473.0963,1397.5502,473.0961,1397.5488z"/>
	<path d="M473.1424,1397.4063c0.3053-0.0032,0.6107-0.0063,0.9159-0.0098C473.6922,1396.8868,473.3664,1396.7184,473.1424,1397.4063
		z"/>
	<polygon points="369.8007,835.9064 369.5518,835.7436 369.5174,835.9974 	"/>
	<polygon points="187.65,714.7526 187.3791,714.8436 187.6143,715.0059 	"/>
</g>
</svg>
