<?xml version="1.0" encoding="utf-8"?>

<!DOCTYPE svg PUBLIC "-//W3C//DTD SVG 1.1//EN" "http://www.w3.org/Graphics/SVG/1.1/DTD/svg11.dtd">
<svg version="1.1" id="Layer_1" xmlns="http://www.w3.org/2000/svg" xmlns:xlink="http://www.w3.org/1999/xlink" x="0px" y="0px"
	 viewBox="0 0 1492.283 1717.473" enable-background="new 0 0 1492.283 1717.473" xml:space="preserve">
<path stroke="#CECECE" stroke-width="0.0938" stroke-miterlimit="10.43" d="M1311.504,1151.304
	c-8.001-5.965-18.062-8.9-26.075-14.209c-56.488-37.425-145.867-39.934-206.705-12.532c-7.719,3.477-29.831,0.741-29.84-3.883
	c-0.029-15.459-19.855-12.92-22.136-25.008c-4.433-23.498-23-6.114-23.762-20.298c-0.323-6.007,3.351-10.283,7.568-13.973
	c3.76-3.291,6.673-0.301,9.249,1.93c20.466,17.717,43.351,14.491,66.734,8.085c26.302-7.206-16.113-21.606-24.085-28.501
	c-8.32-7.196-17.316-11.032-26.847-16.534c-21.769-12.565-42.814-26.42-63.802-40.282c-6.428-4.245-36.983-19.362-42.315-9.08
	c-9.844,19.089,59.815,17.773,59.209,63.397c-0.09,6.764,1.535,15.797-5.095,17.503c-5.776,1.486-12.592-4.606-16.812-10.538
	c-35.798-50.308-63.62-75.815-71.401-85.75c-30.893-39.443-56.989-38.194-49.947-65.693c2.238-8.739-7.32-7.472,2.651-15.158
	c29.285-22.574,34.678-55.901,55.113-78.013c20.612-22.305,29.696-54.573,60.892-68.152c6.929-3.016,10.481-13.235,16.319-19.451
	c7.965-8.481,15.928-16.642,14.591-29.596c-0.271-2.628,1.761-4.199,3.018-6.174c17.674-27.773,27.912-41.792,27.986-57.766
	c0.193-42.145-4.691-83.472-40.897-150.724c-31.477-58.469-46.438-120.476-98.324-194.326
	c-60.261-85.77-107.269-91.013-124.351-105.489c-12.956-10.979-19.044-1.45-24.257-5.134c-10.454-7.387-22.561-4.739-34.18-4.805
	c-4.105-0.023-7.757-0.878-11.002,4.223c-2.795,4.395-7.804,3.993-12.516-1.146c-6.636-7.237-11.447-16.426-22.972-19.188
	c-4.669-1.119-10.46-7.815-9.458-16.083c0.852-7.027-0.062-14.249,0.343-21.355c0.328-5.75-1.7-10.127-6.29-13.173
	c-15.303-10.159-52.123-39.644-97.292-35.297c-29.937,2.881-39.983,7.32-66.353,42.924c-38.316,51.735-29.504,94.368,2.787,136.43
	c4.514,5.88,11.1,6.416,17.927,5.052c10.149-2.027,27.723,4.704,30.442,13.897c8.297,28.051,43.696,6.901,49.349,34.195
	c2.778,13.413,15.314,20.054,27.479,14.223c8.041-3.854,16.989-7.652,22.742-14.002c8.283-9.14,10.741-3.489,13.548,3.173
	c23.751,56.363,11.092,97.44,46.384,131.165c4.242,4.053,8.424,8.897,6.373,15.636c-14.742,48.436-44.505,58.786-59.174,93.48
	c-16.024,37.901-52.727,21.543-55.426,37.344c-2.669,15.627-13.44,27.715-15.725,43.156c-1.788,12.078-6.219,23.197-14.211,32.907
	c-6.101,7.413-1.641,20.642,17.181,20.428c6.871-0.078,13.719,0.441,16.791,8.089c5.275,13.131,11.163,26.104,15.176,39.623
	c7.012,23.624-13.831,14.526-17.051,30.138c-2.37,11.495-8.659,21.303-15.39,30.062c-9.129,11.88-13.652,26.549-25.092,37.137
	c-6.381,5.905-13.581,12.16-16.174,21.734c-6.615,24.426-20.086,44.549-39.343,61.012c-16.733,14.305-55.399-15.301-74.304-22.635
	c-96.69-37.513-218.569-17.79-303.954,85.636c-82.164,99.526-72.747,248.967,3.155,344.762
	c153.364,193.558,468.31,78.996,475.379-166.588c2.825-98.134-41.533-150.733-42.928-153.71
	c-5.628-12.005-12.51-22.785-21.776-31.671c-6.91-6.627-9.732-15.555-15.835-22.532c-7.765-8.877,16.235-28.23,22.742-38.589
	c8.705-13.858,17.281-27.737,30.467-38.372c5.729-4.62,9.02-4.447,14.08-0.472c24.362,19.138,25.074,26.568,45.206,59.497
	c27.853,45.557,58.392,89.501,82.719,137.173c12.033,23.579,28.714,44.004,43.604,65.651c12.234,17.786-11.615,22.29,2.47,42.026
	c20.915,29.307-24.988,56.593-58.785,69.867c-7.005,2.751-12.333,9.617-21.323,8.592c-11.376-1.297-15.995,9.483-23.269,15.359
	c-1.874,1.514-1.528,4.637,0.487,6.405c6.778,5.95,13.818,12.355,23.735,9.465c14.647-4.269,7.096,9.991,16.4,13.068
	c0.319-7.802,4.806-10.06,12.104-9.535c6.915,0.497,7.533,3.585,6.228,9.335c-2.479,10.923,92.687,10.217,101.437,9.555
	c23.185-1.755,19.749,27.544,51.011,32.901c13.555,2.323,28.198,3.927,39.507-7.991c1.79-1.887,3.924-4.47,7.113-2.417
	c6.72,4.326-2.489,17.324-2.525,21.826c-0.518,63.86-1.381,125.617,28.959,183.66c94.552,180.884,387.306,197.619,484.971-4.612
	C1466.208,1404.758,1449.643,1254.293,1311.504,1151.304z M346.055,1348.55c-1.252-15.54-1.919-31.125-3.092-46.67
	c-1.494-30.336-4.328-60.606-4.701-90.964c9.292,11.379,15.794,24.8,18.694,39.232c6.947,30.353,15.553,60.333,22.174,90.759
	C368.49,1344.429,357.442,1347.006,346.055,1348.55z M305.07,1349.536c-0.517-44.515,0.122-89.029-0.241-133.524
	c-0.988-13.773,4.305-27.151,12.477-38.002c0.549-0.066,1.626-0.242,2.175-0.308c6.216,8.875,12.389,18.518,13.949,29.479
	c1.34,13.158,1.625,26.426,2.592,39.628c1.357,34.125,4.411,68.145,6.094,102.232C330.109,1350.405,317.737,1350.61,305.07,1349.536
	z M125.443,1209.376c-1.284-3.595-2.474-7.179-3.577-10.752c45.1-10.792,90.218-21.469,135.253-32.476
	c-6.788,7.227-14.234,14.08-23.394,18.166c-30.577,14.344-61.704,27.48-92.501,41.363c-2.432,1.077-4.848,2.221-7.272,3.352
	C130.105,1221.255,127.263,1214.474,125.443,1209.376z M289.42,923.374c6.957,35.111,13.704,70.273,20.594,105.417
	c2.416,11.225,1.428,22.779-0.857,33.916c-5.448-11.159-9.468-22.889-13.861-34.488c-12.778-32.135-25.668-64.258-37.234-96.846
	C268.195,928.012,278.667,925.326,289.42,923.374z M469.607,987.446c5.239,5.974,10.056,12.086,14.493,18.308
	c-29.975,20.07-60.297,39.615-90.366,59.584c1.443-6.127,5.081-12.04,9.977-17.95c18.298-22.088,30.221-37.801,38.472-48.392
	c3.611-3.593,7.221-7.187,10.833-10.778c2.566-2.555,5.234-4.997,7.971-7.362C463.624,980.966,466.036,983.375,469.607,987.446z
	 M374.739,1139.035c-2.237,1.576-5.638-0.013-8.081-3.491c3.419-1.382,6.887-2.622,10.438-3.426
	C378.49,1134.474,377.062,1137.399,374.739,1139.035z M351.838,1149.783c-1.582-2.746-2.68-5.733-3.844-8.633
	c5.536,3.163,10.61,7.073,15.113,11.62C359.306,1151.913,355.44,1151.255,351.838,1149.783z M387.028,1169.553
	c-10.039-2.438-20.473-5.184-28.249-12.433C370.07,1155.516,379.581,1161.82,387.028,1169.553z M267.134,1122.742
	c6.321-0.502,12.661-0.784,19.002-1.038c-0.451,1.615-0.771,3.249-0.941,4.885C278.911,1127.081,272.636,1126.167,267.134,1122.742z
	 M269.024,1129.771c-10.368,0.044-20.495-2.438-30.292-5.557C249.122,1122.105,261.094,1121.248,269.024,1129.771z
	 M292.396,1107.212c0.358,0.288,0.724,0.564,1.084,0.85c-0.256,0.303-0.506,0.611-0.753,0.923
	C292.618,1108.395,292.504,1107.8,292.396,1107.212z M292.98,1146.716c1.779,1.812,3.456,3.569,4.701,5.681
	c-3.504,0.682-7.008,1.364-10.512,2.065C289.124,1151.878,291.056,1149.3,292.98,1146.716z M300.612,1186.335
	c1.032,7.798-0.264,15.64-4.525,22.318C295.427,1200.921,297.141,1193.255,300.612,1186.335z M307.333,1176.516
	c2.35-3.163,5.58-5.514,8.567-7.996c-2.372,7.864-6.195,15.179-11.027,21.835C305.51,1185.742,305.246,1180.778,307.333,1176.516z
	 M310.365,1163.688c-1.032,3.251-2.965,6.129-4.591,9.094c-0.158-5.166-0.166-10.315-0.039-15.478
	c0.429,0.041,0.855,0.108,1.28,0.199C308.316,1159.465,309.617,1161.444,310.365,1163.688z M317.658,1080.983
	c-7.051-6.217-5.338-15.86-2.68-23.724C317.152,1064.97,318.097,1072.966,317.658,1080.983z M313.264,1083.224
	c0.538,4.606,0.182,9.184-0.932,13.585c-1.163,0.144-2.321,0.385-3.468,0.716C309.576,1092.57,310.968,1087.735,313.264,1083.224z
	 M330.684,1170.519c-1.691-2.966-4.393-5.623-4.876-9.094c0.53-1.378,1.175-2.692,1.871-3.979c0.865-0.228,1.722-0.484,2.55-0.818
	C330.499,1161.251,330.666,1165.878,330.684,1170.519z M331.628,1190.091c-5.272-6.941-9.621-14.784-10.346-23.636
	c3.141,2.834,6.832,5.316,9.028,9.028C331.562,1180.228,331.387,1185.215,331.628,1190.091z M376.326,1112.729
	c-3.271,1.671-6.718,2.801-10.267,3.573c1.963-3.804,5.27-7.725,10.414-11.474C377.412,1107.219,377.065,1109.931,376.326,1112.729z
	 M373.365,1125.929c-3.217,0.002-6.454-0.319-9.678-0.991c0.003-0.063,0.005-0.125,0.008-0.189
	c3.244-2.129,6.718-3.531,10.327-4.459C373.495,1122.259,373.171,1124.166,373.365,1125.929z M336.637,1182.271
	c6.37,9.49,9.182,20.758,10.236,32.027c-3.493-4.745-7.337-9.402-9.402-15.003C335.824,1193.782,336.571,1187.917,336.637,1182.271z
	 M350.59,1133.295c0-0.002,0.001-0.003,0.001-0.005c0.396-0.4,0.809-0.773,1.242-1.111c1.425,0.018,3.646,1.247,4.287,2.39
	c0.184,0.329,0.386,0.636,0.595,0.934c-2.129,0.598-4.315,1.008-6.539,1.228C350.466,1135.719,350.621,1134.587,350.59,1133.295z
	 M363.913,1128.682c2.025-0.039,4.07,0.069,6.047,0.233c-1.625,1.218-3.327,2.309-5.091,3.266
	C364.448,1131.099,364.119,1129.927,363.913,1128.682z M393.684,1093.17c-2.566-0.248-2.672-10.405,5.051-5.572
	C398.132,1090.462,397.562,1093.545,393.684,1093.17z M423.888,976.025c2.172-3.741,4.358-7.475,6.551-11.204
	C429.074,968.357,426.71,972.192,423.888,976.025z M409.948,992.272c-0.293,0.313-0.585,0.623-0.87,0.927
	c-16.177,17.205-28.894,37.341-44.396,54.869c7.682-22.617,16.12-44.988,23.291-67.779c4.659-13.94,9.483-27.826,14.528-41.638
	c3.304,3.018,8.699,6.87,22.113,11.623c3.38,1.198,5.401,2.969,6.374,5.146C423.883,967.651,416.895,979.949,409.948,992.272z
	 M388.814,931.184c5.812,0.873,8.152,2.252,10.267,4.171c-11.798,37.074-25.028,73.658-37.688,110.459
	c-1.056,2.983-2.029,5.998-2.983,9.021c-1.021,1.046-2.048,2.087-3.1,3.106c-7.13,6.909-18.917,26.424-29.247,34.868
	c-2.026-9.249-3.672-18.675-0.673-27.883c13.779-46.439,26.982-93.063,40.346-139.634
	C373.35,927.598,380.906,929.996,388.814,931.184z M357.329,941.012c-12.367,41.122-23.065,82.748-35.871,123.738
	c-3.471-11.093-6.041-22.757-4.262-34.444c4.779-36.887,9.086-73.834,13.825-110.726c2.026-0.007,4.058,0.006,6.097,0.05
	c8.572,0.184,16.555,2.123,24.397,4.407C360.341,929.751,358.989,935.425,357.329,941.012z M318.009,994.084
	c-1.054,10.522-2.548,21-4.986,31.302c-6.26-34.286-13.534-68.385-19.722-102.68c10.945-1.797,22.167-2.843,33.603-3.079
	C324.377,944.498,320.603,969.234,318.009,994.084z M300.941,1053.415c3.119,7.754,6.568,15.706,6.502,24.207
	c-0.018,7.127-1.099,14.181-2.139,21.222c-1.452,0.662-2.869,1.461-4.239,2.376c-4.982-3.677-9.963-7.375-14.512-11.604
	c-6.107-5.514-8.962-13.444-12.148-20.802c-14.015-34.114-28.974-67.855-43.164-101.903c-2.767-6.787-6.148-13.384-8.728-20.254
	c9.958-5.344,20.399-9.974,31.251-13.815C269.982,972.823,285.098,1013.287,300.941,1053.415z M281.852,1097.349
	c-9.27-4.086-14.805-12.719-18.716-21.681C271.22,1081.049,278.975,1087.683,281.852,1097.349z M251.868,1025.54
	c6.832,16.87,15.069,33.214,20.429,50.655c-10.28-5.623-19.484-13.378-25.503-23.57c-11.84-19.484-25.569-37.717-37.475-57.135
	c-5.947-9.526-12.598-18.602-18.427-28.187c8.836-6.93,18.254-13.206,28.175-18.759C230.38,974.055,240.838,999.928,251.868,1025.54
	z M239.127,1049.747c-25.19-18.834-48.705-39.76-73.195-59.464c6.769-7.314,14.069-14.157,21.84-20.487
	c9.031,13.464,17.764,27.131,26.489,40.785C222.806,1023.475,232.339,1035.776,239.127,1049.747z M163.347,993.132
	c3.285,2.581,6.417,5.382,9.617,8.046c22.911,19.616,46.723,38.134,69.92,57.421c9.116,7.381,15.201,17.573,20.846,27.656
	c-40.504-21.565-80.065-44.835-120.218-67.018C149.425,1010.021,156.062,1001.298,163.347,993.132z M261.665,1090.121
	c11.093,5.426,16.826,16.804,22.164,27.283c-11.62,1.757-24.119,2.812-34.817-3.075c-41.1-20.093-82.345-39.932-123.602-59.718
	c4.42-11.226,9.8-21.96,16.051-32.117C181.693,1044.746,221.526,1067.703,261.665,1090.121z M186.847,1088.54
	c20.429,10.412,41.648,19.265,61.792,30.248c-13.004,1.054-26.36,1.45-39.013-2.394c-31.406-9.119-63.006-17.607-94.592-26.158
	c2.151-11.057,5.183-21.773,9.023-32.088C145.136,1067.966,165.839,1078.55,186.847,1088.54z M204.376,1119.161
	c-17.529,2.614-35.322,1.867-52.983,2.46c-13.345,0.14-26.689,0.501-40.034,0.916c0.345-9.697,1.344-19.2,2.964-28.471
	C144.477,1101.932,174.523,1110.258,204.376,1119.161z M111.258,1126.283c31.689-0.733,63.386-1.194,95.051-2.53
	c15.399-1.01,30.599,2.504,44.702,8.501c-33.631,7.82-67.855,12.873-101.617,20.099c-12.094,2.141-24.085,5.02-36.196,7.123
	C111.689,1148.208,111.063,1137.128,111.258,1126.283z M113.684,1162.911c46.624-9.204,93.446-17.465,140.029-26.901
	c11.159-2.197,22.032,2.021,32.335,5.733c-8.193,8.237-16.563,17.464-28.271,20.385c-35.3,8.875-70.93,16.431-106.186,25.503
	c-10.332,2.207-20.547,4.929-30.835,7.302C117.597,1184.128,115.257,1173.441,113.684,1162.911z M273.022,1162.567
	c-3.625,4.898-8.721,8.259-14.52,9.995C262.17,1167.751,267.178,1164.281,273.022,1162.567z M135.741,1232.577
	c29.272-13.529,58.648-26.868,88.669-38.641c-19.199,19.199-41.012,35.586-61.397,53.467c-4.069,3.568-8.177,7.098-12.324,10.58
	C144.754,1249.068,139.766,1240.399,135.741,1232.577z M152.801,1261.108c25.623-21.882,51.384-43.596,77.078-65.393
	c9.072-8.809,19.902-15.75,32.181-19.023c-7.051,10.544-15.091,20.407-23.263,30.116c-21.822,26.737-42.847,54.192-65.075,80.624
	C165.826,1278.877,158.852,1269.914,152.801,1261.108z M176.702,1290.585c25.956-32.82,52.519-65.159,78.724-97.77
	c5.514-6.941,10.412-14.52,17.288-20.209c7.557-5.975,16.98-8.699,25.964-11.774c-1.098,11.379-1.823,23.68-9.116,33.104
	c-14.981,20.121-30.578,39.76-45.515,59.903c-14.032,19.575-29.253,38.262-43.51,57.676
	C191.863,1305.19,183.919,1298.084,176.702,1290.585z M243.169,1261.636c16.277-21.198,31.544-43.23,48.81-63.637
	c-1.054,11.796-2.438,23.878-7.666,34.685c-15.311,30.555-31.302,60.716-46.877,91.139c-1.148,2.204-2.261,4.436-3.422,6.642
	c-5.359-2.425-10.744-5.077-16.15-7.984c-4.875-2.621-9.557-5.518-14.055-8.626C216.554,1296.166,229.56,1278.666,243.169,1261.636z
	 M237.356,1331.949c9.148-18.248,18.714-36.282,28.153-54.387c5.579-10.632,10.807-21.527,17.441-31.588
	c-0.725,17.573-5.338,34.641-8.018,51.951c-2.777,14.84-4.872,29.837-8.069,44.594
	C257.139,1339.776,247.294,1336.271,237.356,1331.949z M282.797,1274.772c4.855-21.439,4.262-45.141,17.705-63.659
	c1.076,16.277,0.527,32.576,0.615,48.876c-0.232,29.718,0.383,59.435-0.196,89.153c-9.881-1.051-19.935-2.887-30.127-5.557
	C274.289,1320.572,279.021,1297.74,282.797,1274.772z M373.87,1303.351c-4.459-18.254-9.665-36.311-13.246-54.763
	c10.939,15.047,19.968,31.324,29.435,47.294c6.195,10.797,12.953,21.27,19.219,32.022c-8.462,4.547-17.268,8.482-26.389,11.719
	C379.597,1327.612,377.018,1315.406,373.87,1303.351z M362.426,1242.174c-8.237-13.224-11.401-28.71-13.751-43.889
	c24.603,26.25,46.745,54.719,70.029,82.111c7.54,8.691,15.064,17.385,22.481,26.162c-8.907,7.261-18.391,13.769-28.384,19.407
	C395.827,1298.153,379.168,1270.136,362.426,1242.174z M361.349,1206.017c-6.436-7.578-13.927-14.74-17.485-24.251
	c-2.9-7.974-4.349-16.365-5.997-24.669c10.171,3.669,21.417,6.48,28.886,14.871c28.337,30.973,57.003,61.66,85.34,92.611
	c5.239,5.39,10.518,10.745,15.525,16.336c-7.23,8.312-15.054,16.053-23.407,23.128
	C416.145,1271.756,389.041,1238.635,361.349,1206.017z M470.195,1277.896c-15.195-16.494-30.818-32.583-45.824-49.231
	c-17.727-19.858-36.794-38.529-53.664-59.134c12.828,3.01,25.679,7.051,36.684,14.498c28.281,20.888,56.459,41.931,84.522,63.133
	C485.503,1258.02,478.235,1268.314,470.195,1277.896z M416.99,1185.742c30.248,9.592,59.943,20.81,89.856,31.384
	c-3.75,9.131-8.066,18.001-12.909,26.54C468.195,1224.489,442.334,1205.437,416.99,1185.742z M415.255,1180.536
	c-11.796-3.712-21.901-11.071-30.973-19.243c25.613,2.416,50.831,7.82,76.268,11.62c19.072,3.647,38.348,6.176,57.469,9.541
	c-2.504,10.546-5.75,20.882-9.673,30.923C477.317,1202.409,446.432,1191.081,415.255,1180.536z M478.87,1172.211
	c-32.071-5.689-64.318-10.192-96.346-16.036c-10.698-1.604-18.672-9.358-26.47-16.167c1.218-0.494,2.438-1.01,3.662-1.533
	c5.451,3.905,13.495,4.565,15.887,12.104c1.559,4.914,26.262-8.341,26.241-14.448c-0.004-1.138-0.036-2.276-0.083-3.414
	c40.619,4.186,81.242,8.571,121.903,12.427c-0.764,11.453-2.409,22.795-4.874,33.92
	C505.458,1176.97,492.251,1174.024,478.87,1172.211z M523.89,1141.348c-40.796-3.908-81.606-7.946-122.339-12.527
	c-0.136-2.179-0.285-4.355-0.371-6.529c8.52-3.764,17.463-6.505,26.838-6.997c31.689-2.006,63.315-4.936,94.986-7.241
	C524.156,1119.181,524.437,1130.31,523.89,1141.348z M522.578,1104.26c-17.524,1.63-35.157,2.394-52.67,4.116
	c-11.994,1.01-23.965,2.197-36.025,2.021c17.464-8.216,35.784-14.432,53.643-21.747c9.996-3.844,19.831-8.121,29.858-11.882
	C519.739,1085.887,521.461,1095.068,522.578,1104.26z M516.366,1072.962c-29.339,12.463-59.411,23.144-89.007,34.975
	c-8.324,3.542-17.122,5.323-26.044,6.167c0.414-4.522,1.534-9.026,4.075-13.504c0.184-0.324,0.325-0.691,0.445-1.075
	c11.608-6.953,23.381-13.641,35.144-20.32c21.096-12.908,42.213-25.809,63.704-38.057
	C509.498,1051.596,513.379,1062.229,516.366,1072.962z M405.886,1094.997c-0.735-3.107-2.985-6.279-7.085-7.514
	c-4.172-5.981-5.883-11.619-5.74-17.05c31.228-20.299,62.036-41.245,93.402-61.307c6.33,9.228,11.813,18.692,16.479,28.326
	C470.717,1056.849,438.179,1075.72,405.886,1094.997z M757.86,647.358c0.089,8.292-9.005,15.281-14.476,21.816
	c-13.295,15.884-22.855,34.352-35.859,50.066c-18.353,22.18-44.101,79.253-64.257,93c-1.65-11.808-12.15-14.851-19.041-21.421
	c-7.109-6.778-9.623-15.164-6.161-23.544c3.835-9.284,3.621-22.856,19.574-22.85c10.131,0.004-3.287-16.276,10.328-25.902
	c5.065-3.581,0.751-16.996-6.848-18.231c-14.042-2.282-29.893-19.189-23.537-54.692c2.383-13.313,17.249,11.284,31.259-15.579
	c7.662-14.69,20.103-26.535,25.215-43.136c1.438-4.672,6.407-7.108,57.552-30.342c12.01-5.456,20.259-2.848,25.589,10.869
	c4.84,12.456,14.985,21.537,19.024,34.617C781.183,618.09,757.611,623.98,757.86,647.358z M1271.164,1584.269
	c-18.735-30.519-37.022-61.329-55.424-92.063c-8.237-13.224-11.401-28.71-13.751-43.889c24.603,26.25,46.745,54.719,70.029,82.111
	c9.795,11.29,19.561,22.589,29.097,34.066C1291.802,1572.021,1281.762,1578.647,1271.164,1584.269z M1201.023,1605.57
	c-0.345,0.035-0.69,0.055-1.035,0.088c-1.68-17.881-2.36-35.841-3.711-53.747c-1.494-30.336-4.328-60.606-4.701-90.964
	c9.292,11.379,15.794,24.8,18.694,39.232c7.573,33.092,17.114,65.743,23.909,99.01
	C1223.371,1602.285,1212.268,1604.435,1201.023,1605.57z M1158.453,1604.913c-0.639-46.297,0.068-92.593-0.31-138.87
	c-0.988-13.773,4.306-27.151,12.477-38.002c0.549-0.066,1.625-0.242,2.175-0.308c6.217,8.875,12.389,18.518,13.949,29.479
	c1.34,13.158,1.625,26.426,2.592,39.628c1.449,36.442,4.826,72.765,6.408,109.177
	C1183.31,1606.905,1170.829,1606.493,1158.453,1604.913z M1376.036,1354.277c-17.571,1.639-35.252,2.403-52.813,4.13
	c-11.994,1.01-23.965,2.197-36.025,2.021c17.463-8.216,35.784-14.432,53.642-21.747c9.708-3.734,19.264-7.876,28.992-11.558
	C1372.46,1335.907,1374.546,1344.966,1376.036,1354.277z M1368.685,1323.413c-29.024,12.282-58.75,22.858-88.011,34.555
	c-14.454,6.151-30.336,7.007-45.822,6.832c19.243-12.763,39.364-24.163,59.441-35.564c20.437-12.504,40.895-24.999,61.692-36.904
	C1360.964,1302.231,1365.234,1312.606,1368.685,1323.413z M1205.152,1399.814c-1.581-2.746-2.68-5.733-3.844-8.633
	c5.536,3.163,10.61,7.073,15.113,11.62C1212.621,1401.945,1208.755,1401.286,1205.152,1399.814z M1240.343,1419.584
	c-10.039-2.438-20.473-5.184-28.249-12.433C1223.385,1405.547,1232.896,1411.852,1240.343,1419.584z M1216.773,1374.926
	c10.764-7.205,24.119-6.239,36.465-6.722C1242.32,1374.97,1229.426,1377.628,1216.773,1374.926z M1223.275,1378.946
	c-6.392,4.789-13.949,7.644-21.945,7.974C1205.57,1378.463,1215.015,1378.265,1223.275,1378.946z M1233.16,1360.714
	c-10.982,7.372-24.534,7.055-37.186,7.768c-0.023-0.051-0.046-0.101-0.07-0.152c6.139-11.14,11.785-23.53,23.131-30.373
	c39.75-24.889,78.339-51.582,117.787-76.912c6.39,8.73,12.201,17.982,17.323,27.713
	C1313.926,1312.927,1273.223,1336.287,1233.16,1360.714z M1189.952,1432.303c6.37,9.49,9.182,20.758,10.236,32.027
	c-3.493-4.745-7.337-9.402-9.402-15.003C1189.139,1443.813,1189.886,1437.948,1189.952,1432.303z M1094.003,1328.375
	c5.258,2.963,10.521,5.919,15.788,8.868c3.125,10.251-6.428,7.466-9.951,7.2c-6.287-0.476-14.862-1.232-15.663-7.234
	C1083.408,1331.455,1088.901,1329.636,1094.003,1328.375z M1092.442,1299.778c-20.49-15.32-39.871-32.023-59.57-48.328
	c2.101-0.082,4.291,0.57,6.254,2.202c1.164,0.968,3.053,2.65,3.8,2.296c13.091-6.197,14.736,6.059,20.463,12.172
	c9.855,10.519,20.905,19.369,26.699,27.082C1090.902,1296.711,1091.691,1298.233,1092.442,1299.778z M1171.031,1324.743
	c0.071,2.086,0.056,4.178-0.059,6.272c-2.586-2.28-3.985-5.023-4.599-7.968C1167.887,1323.863,1169.452,1324.402,1171.031,1324.743z
	 M1191.213,1332.919c-1.146,3.164-3.78,6.101,1.415,8.621c0.38,0.184,0.723,0.324,1.05,0.442c-3.552,3.42-7.484,6.511-11.248,9.618
	c-0.194-1.331-0.249-2.707-0.114-4.085c0.476-4.878-0.979-8.02-3.894-9.293c-0.828-4.319-1.408-8.661-1.338-12.989
	C1187.281,1324.931,1195.814,1320.211,1191.213,1332.919z M1166.783,1339.204c-0.965,0.139-1.868,0.185-2.707,0.142
	c0.679-2.08,1.499-4.118,2.503-6.091C1166.812,1335.248,1166.874,1337.234,1166.783,1339.204z M1188.734,1361.82
	c-0.923-0.38-1.81-1.046-2.618-1.92c2.743-1.213,5.495-2.423,8.251-3.602c-0.862,2.354-1.936,4.609-3.166,6.773
	C1190.471,1362.619,1189.656,1362.199,1188.734,1361.82z M1160.758,1327.654c-0.009,3.575-0.292,7.131-0.697,10.677
	c-7.933-4.025-6.396-18.421-0.163-18.535C1160.452,1322.368,1160.779,1324.984,1160.758,1327.654z M1129.326,1357.647
	c-6.338-1.953-13.698-2.968-12.736-12.348c0.156-1.519,0.643-2.656,1.363-3.451c6.09,3.898,10.424,9.701,14.056,15.948
	C1131.279,1358.002,1130.404,1357.979,1129.326,1357.647z M1102.08,1324.778c0.392-2.842,0.927-6.225,4.13-5.647
	c1.019,1.334,2.001,2.698,2.946,4.091c-0.213,1.089-0.708,2.255-1.224,3.332c-0.773,1.611-0.746,3.131-0.382,4.612
	c-2.646-1.43-5.298-2.849-7.938-4.291C1101.003,1326.355,1101.95,1325.719,1102.08,1324.778z M1090.603,1369.478
	c-9.323,0.265-18.67-0.321-27.662-3.053c-32.427-9.415-65.06-18.158-97.671-26.992c2.106-23.304,10.513-13.826,110.924,23.525
	C1081.218,1364.826,1086.295,1366.578,1090.603,1369.478z M1095.377,1373.635c0.494,0.563,0.975,1.147,1.424,1.779
	c0.094,0.132,0.192,0.24,0.287,0.36c-1.69-0.486-3.371-0.997-5.042-1.529C1093.14,1374.023,1094.255,1373.82,1095.377,1373.635z
	 M1106.565,1378.124c0.402,0.011,0.804,0.033,1.202,0.087c-0.061,0.04-0.121,0.075-0.181,0.114
	C1107.245,1378.259,1106.905,1378.193,1106.565,1378.124z M1122.212,1416.987c-0.343,0.292-0.691,0.577-1.048,0.851
	C1121.492,1417.536,1121.844,1417.255,1122.212,1416.987z M1149.401,1458.685c-0.659-7.732,1.054-15.399,4.525-22.318
	C1154.959,1444.165,1153.663,1452.007,1149.401,1458.685z M1160.108,1421.012c-0.346,0.599-0.689,1.198-1.02,1.801
	c-0.019-0.618-0.028-1.235-0.043-1.852C1159.396,1420.992,1159.75,1421.008,1160.108,1421.012z M1160.648,1426.548
	c1.698-2.286,3.856-4.146,6.049-5.939c0.619-0.018,1.231-0.01,1.832,0.037c-2.393,7.07-5.942,13.681-10.342,19.741
	C1158.825,1435.774,1158.561,1430.809,1160.648,1426.548z M1179.249,1420.481c1.672,1.493,3.229,3.094,4.377,5.034
	c1.252,4.745,1.076,9.731,1.318,14.608c-4.237-5.579-7.875-11.742-9.517-18.542
	C1176.598,1421.396,1177.888,1421.025,1179.249,1420.481z M1183.999,1420.551c-0.352-0.617-0.752-1.22-1.163-1.821
	c0.375-0.217,0.752-0.45,1.13-0.69C1183.978,1418.876,1183.995,1419.713,1183.999,1420.551z M1334.408,1257.803
	c-29.427,19.654-59.172,38.827-88.661,58.428c-9.863,6.524-19.704,13.158-30.138,18.737c5.096-11.84,12.631-22.56,22.406-31.017
	c23.636-20.978,45.91-43.428,68.316-65.702c1.922-1.914,3.915-3.749,5.937-5.552
	C1320.18,1240.458,1327.6,1248.844,1334.408,1257.803z M1309.723,1230.241c-7.742,7.826-15.746,15.388-23.909,22.792
	c-17.309,15.75-33.279,32.906-50.875,48.349c16.637-30.498,33.615-60.816,51.287-90.724
	C1294.405,1216.613,1302.271,1223.153,1309.723,1230.241z M1225.362,1308.785c-4.02,6.941-10.039,12.345-16.277,17.244
	c9.468-32.313,22.098-63.593,32.203-95.708c4.35-13.014,8.841-25.981,13.521-38.885c9.577,4.838,18.927,10.425,27.921,16.721
	C1263.387,1241.572,1244.943,1275.503,1225.362,1308.785z M1251.053,1189.583c-11.455,35.639-24.163,70.852-36.346,106.264
	c-2.86,8.076-5.122,16.38-7.999,24.459c-5.611-12.562-14.901-10.596-25.628-13.402c12.75-43.193,25.047-86.532,37.467-129.829
	C1229.528,1180.264,1240.419,1184.461,1251.053,1189.583z M1210.644,1191.044c-11.464,38.119-21.515,76.666-33.12,114.744
	c-1.942-0.719-3.921-1.654-5.925-2.906c-1.562-7.406-2.241-14.969-1.088-22.543c4.743-36.605,9.021-73.268,13.717-109.879
	c10.033,0.942,20.142,2.785,30.198,5.471C1213.344,1181.014,1212.123,1186.065,1210.644,1191.044z M1180.171,1170.125
	c-2.527,24.714-6.27,49.296-8.848,73.99c-1.054,10.522-2.548,21-4.986,31.302c-6.348-34.77-13.74-69.347-19.983-104.132
	c1.017-0.103,2.012-0.2,2.953-0.322C1159.394,1169.655,1169.732,1169.398,1180.171,1170.125z M1163.328,1278.822
	c1.3,6.041,1.608,12.177,1.265,18.292c-0.083-0.087-0.166-0.169-0.25-0.257c-2.723-2.884-5.718-4.181-8.287,0.859
	c-0.019,0.036-0.04,0.067-0.059,0.103c-2.555-6.482-4.916-13.044-7.387-19.568c-9.769-24.57-19.601-49.133-28.865-73.9
	c3.635-4.039,7.117-8.743,10.272-14.301c0.961-1.693,3.02-3.521,2.791-5.015c-1.502-9.815,3.739-12.287,9.604-13.258
	C1149.485,1207.429,1156.332,1243.135,1163.328,1278.822z M1153.168,1300.673c-2.182,1.121-4.933,1.048-7.575,0.87
	c-10.05-0.677-19.552-2.447-27.908-6.736c-9.599-22.704-19.431-45.316-29.002-68.034c8.138-4.335,18.543-9.752,28.201-19.407
	C1129.131,1238.406,1140.944,1269.634,1153.168,1300.673z M1105.183,1275.571c2.131,5.263,4.399,10.475,6.674,15.684
	c-3.766-2.709-7.228-6.091-10.317-10.313c-7.658-10.464-16.408-20.155-23.699-30.854c-7.803-11.449-2.703-15.891,7.485-21.506
	C1091.946,1244.25,1098.459,1259.959,1105.183,1275.571z M1024.733,1265.19c-2.529-5.054-0.288-9.955,3.524-12.304
	c21.54,18.344,43.822,35.783,65.619,53.829c-0.892,3.488-4.179,6.743-10.807,9.839c-0.372,0.174-0.725,0.378-1.071,0.596
	c-20.599-11.473-41.07-23.176-61.615-34.742C1024.844,1278.182,1028.69,1273.097,1024.733,1265.19z M1078.948,1319.877
	c-4.682,5.492-6.99,14.287-12.916,12.726c-33.267-3.682-42.064-16.264-56.701-18.134c-13.049-1.667-13.199-14.624-20.499-21.154
	c-1.305-1.167-0.233-2.93,0.946-4.11c8.142-8.151,10.458,12.631,25.777-2.373c0.578-0.566,1.201-1.136,1.844-1.714
	C1037.954,1296.636,1058.439,1308.277,1078.948,1319.877z M1057.691,1369.193c-17.529,2.614-35.322,1.867-52.983,2.46
	c-13.977,0.146-27.954,0.533-41.931,0.973c0.193-3.251,0.437-6.512,0.786-9.792c0.825-7.754,1.085-14.22,1.412-19.434
	C996.023,1351.469,1026.958,1360.027,1057.691,1369.193z M962.569,1376.359c32.356-0.761,64.722-1.211,97.055-2.576
	c14.442-0.948,28.709,2.085,42.06,7.412c-20.913,6.766-34.504-24.528-46.465,8.279c-0.478,1.311-1.107,2.298-1.818,3.112
	c-16.925,3.133-33.866,6.195-50.692,9.797c-12.958,2.294-25.796,5.436-38.791,7.561
	C962.583,1398.983,962.096,1387.772,962.569,1376.359z M964.365,1413.47c27.657-5.482,55.384-10.627,83.095-15.858
	c12.438,6.728,19.325,17.76,34.035,11c9.643-4.431,17.453-2.202,22.076,5.404c-32.836,8.084-65.91,15.218-98.665,23.646
	c-11.205,2.394-22.274,5.384-33.447,7.885C968.29,1435.155,965.893,1424.445,964.365,1413.47z M1105.282,1417.428
	c0.385,0.934,0.733,1.925,1.044,2.968c-5.689,5.607-11.936,10.67-19.288,13.949c-30.577,14.344-61.704,27.48-92.501,41.363
	c-3.086,1.366-6.144,2.844-9.229,4.26c-4.973-9.848-9.233-20.101-12.68-30.702C1016.859,1438.678,1061.108,1428.2,1105.282,1417.428
	z M987.119,1483.502c29.912-13.836,59.922-27.502,90.605-39.535c-19.199,19.199-41.012,35.586-61.397,53.467
	c-4.456,3.907-8.953,7.773-13.503,11.574C997.054,1500.879,991.794,1492.363,987.119,1483.502z M1005.041,1512.057
	c25.977-22.193,52.1-44.208,78.153-66.31c7.56-7.341,16.345-13.376,26.168-17.08c0.294,0.129,0.615,0.238,0.993,0.306
	c1.994,0.361,3.345-0.576,4.533-2.109c0.163-0.045,0.323-0.096,0.487-0.14c-7.051,10.544-15.091,20.407-23.263,30.116
	c-21.885,26.814-42.967,54.351-65.266,80.853C1018.999,1529.7,1011.704,1521.127,1005.041,1512.057z M1029.911,1540.752
	c25.99-32.866,52.589-65.249,78.83-97.905c5.514-6.941,10.412-14.52,17.288-20.209c4.805-3.8,10.367-6.283,16.089-8.38
	c1.59,1.233,3.664,1.765,6.6,1.063c0.792-0.189,2.102-0.205,2.852-0.008c-0.973,10.061-2.343,20.448-8.694,28.654
	c-14.981,20.121-30.578,39.76-45.515,59.903c-14.003,19.535-29.19,38.185-43.421,57.556
	C1045.513,1555.095,1037.476,1548.183,1029.911,1540.752z M1096.484,1511.668c16.277-21.198,31.544-43.23,48.81-63.637
	c-1.054,11.796-2.438,23.878-7.666,34.685c-15.311,30.555-31.302,60.716-46.877,91.139c-1.406,2.701-2.766,5.442-4.219,8.126
	c-10.163-5.301-19.986-11.379-29.352-18.171C1069.907,1546.146,1082.895,1528.673,1096.484,1511.668z M1089.823,1583.669
	c9.403-18.825,19.27-37.412,29.001-56.076c5.579-10.632,10.807-21.527,17.442-31.588c-0.725,17.573-5.338,34.641-8.018,51.951
	c-2.991,15.983-5.191,32.149-8.828,48C1109.326,1592.6,1099.43,1588.485,1089.823,1583.669z M1136.112,1524.804
	c4.855-21.439,4.261-45.141,17.705-63.659c1.076,16.277,0.527,32.576,0.615,48.876c-0.245,31.433,0.439,62.865-0.326,94.298
	c-10.304-1.548-20.516-3.919-30.553-7.035C1127.086,1573.026,1132.135,1548.992,1136.112,1524.804z M1227.185,1553.383
	c-4.459-18.254-9.665-36.311-13.246-54.763c10.939,15.047,19.968,31.324,29.435,47.294c7.78,13.559,16.437,26.615,23.901,40.35
	c-9.211,4.619-18.804,8.502-28.67,11.588C1234.073,1583.228,1231.052,1568.193,1227.185,1553.383z M1214.664,1456.049
	c-6.436-7.578-13.927-14.74-17.486-24.251c-2.439-6.706-3.851-13.708-5.219-20.704c0.787-0.914,1.538-1.883,2.249-2.902
	c9.319,3.212,19.124,6.243,25.859,13.809c28.337,30.973,57.003,61.66,85.34,92.611c7.535,7.752,15.16,15.428,21.913,23.858
	c-6.938,8.503-14.653,16.312-22.997,23.376C1273.82,1527.115,1244.584,1491.291,1214.664,1456.049z M1330.03,1535.07
	c-17.21-19.024-35.181-37.333-52.344-56.374c-17.727-19.858-36.794-38.529-53.664-59.134c12.828,3.009,25.679,7.051,36.684,14.498
	c30.1,22.231,60.084,44.636,89.934,67.225c-1.592,3.233-3.253,6.476-4.994,9.731
	C1341.101,1519.518,1335.861,1527.547,1330.03,1535.07z M1270.305,1435.774c31.681,10.046,62.753,21.885,94.106,32.89
	c-3.352,9.518-7.326,19.158-11.97,28.905C1324.988,1477.08,1297.352,1456.792,1270.305,1435.774z M1268.57,1430.568
	c-11.796-3.712-21.901-11.071-30.973-19.243c25.613,2.416,50.831,7.82,76.268,11.62c20.037,3.832,40.299,6.429,60.37,10.058
	c-2.072,10.438-4.885,21.06-8.507,31.845C1333.328,1453.437,1301.109,1441.574,1268.57,1430.568z M1332.185,1422.242
	c-32.071-5.689-64.318-10.192-96.346-16.036c-10.698-1.604-18.672-9.358-26.47-16.167c10.083-4.086,20.297-9.665,31.544-8.743
	c45.881,4.663,91.762,9.693,137.691,14.031c-0.359,11.138-1.565,22.546-3.7,34.191
	C1360.619,1427.415,1346.501,1424.182,1332.185,1422.242z M1243.813,1377.606c11.642-6.304,24.141-11.576,37.519-12.279
	c31.786-2.013,63.507-4.954,95.274-7.263c1.534,10.835,2.264,21.999,2.091,33.458
	C1333.715,1387.216,1288.712,1382.771,1243.813,1377.606z M855.654,1300.485c-6.614-8.227,4.867-11.899,15.706-10.777
	c5.245,0.543,6.227,4.392,5.92,9.304c-0.194,3.121,5.234,1.497,5.895,6.021C866.848,1310.934,863.606,1310.377,855.654,1300.485z
	 M869.469,1257.742c-0.945,3.668-1.345,7.735-5.902,7.862c-4.603,0.129-5.541-3.868-5.91-7.332
	C856.778,1250.011,868.374,1248.724,869.469,1257.742z M886.75,1213.124c-3.016,4.72-10.728,4.933-11.879-0.298
	c-3.935-17.875-33.108-30.714-25.712-36.773c14.535-11.909-6.339-24.118-2.501-41.228c2.397-10.686-7.168-15.356-14.439-18.004
	c-6.626-2.414-9.96-6.539-11.903-11.731c-8.399-22.445-13.134-45.728-14.293-70.806c6.811,3.787,12.326,7.801,17.311,12.659
	c56.701,55.253,29.722,19.336,92.295,80.867C934.627,1146.493,928.909,1147.137,886.75,1213.124z M913.815,1247.332
	c-14.837-16.714-7.275-18.235,27.187-75.488c3.304-5.488,7.103-9.836,13.932-8.065c8.045,2.087,7.419,14.877,7.419,23.001
	c2.453,9.617-6.307,17.824-11.089,27.376C926.389,1263.843,921.852,1256.385,913.815,1247.332z"/>
</svg>
