<?xml version="1.0" encoding="utf-8"?>
<!-- Generator: Adobe Illustrator 21.0.0, SVG Export Plug-In . SVG Version: 6.00 Build 0)  -->
<svg version="1.1" id="Ebene_1" xmlns="http://www.w3.org/2000/svg" xmlns:xlink="http://www.w3.org/1999/xlink" x="0px" y="0px"
	 viewBox="0 0 182.8 85.2" style="enable-background:new 0 0 182.8 85.2;" xml:space="preserve">
<style type="text/css">
	.st0{fill:#EB8400;}
	.st1{fill:#007887;}
</style>
<path class="st0" d="M123.2,67h3l-0.7,3.6h-2.3v6.6c0,2.3,0.3,2.8,1.7,2.8c0.5,0,1-0.1,1.4-0.3l0.7,3.2c-1.4,0.7-2.8,0.9-4.1,0.9
	c-3.1,0-5.1-0.8-5.1-3.9v-9.2h-1.3V67h1.3c0-1.6,0-3,0.2-4l5.5-0.8C123.2,63.8,123.2,65.5,123.2,67 M138,71.4
	c-0.6-0.3-1-0.4-1.6-0.4c-0.9,0-1.5,0.5-1.9,1.2v11.1h-5.5v-9.9c0-2.1-0.1-4.1-0.5-5.9l5.1-0.9c0.2,0.6,0.3,1.3,0.3,1.9
	c0.7-0.9,1.6-2,3.3-2c0.8,0,1.3,0.2,2.1,0.5L138,71.4z M149.6,82.3c-0.8,0.7-2.1,1.4-4.1,1.4c-4,0-5.6-2.4-5.6-5.3
	c0-3.1,2.7-5.3,7.2-5.3c0.2,0,0.8,0,0.9,0v-1c0-0.9-0.1-1.5-1.3-1.5c-1.8,0-3.3,0.7-4.6,1.7l-2-3.4c2-1.2,4.6-2.3,7.3-2.3
	c3.1,0,5.3,1,5.9,3c0.2,0.7,0.3,1.3,0.3,2.5l-0.1,5.6c0,1.4,0.1,2.5,1.3,3.2l-3.2,3.1C150.8,83.7,149.9,82.8,149.6,82.3 M145.3,78.3
	c0,0.9,0.6,1.6,1.5,1.6c0.5,0,1.1-0.3,1.3-0.5v-2.8C145.8,76.4,145.3,77.4,145.3,78.3 M159.4,65.8c-1.7,0-3.1-1.4-3.1-3.1
	c0-1.7,1.5-3.1,3.2-3.1c1.7,0,3.1,1.4,3.1,3.1C162.6,64.4,161.2,65.8,159.4,65.8 M156.7,83.3v-16l5.5-0.5v16.5H156.7z M170.2,83.7
	c-4.6,0-4.7-2.4-4.7-5.7V66.9c0-2.1,0-4.7-0.2-5.9l5.4-0.9c0.2,1,0.3,2.4,0.3,4.1v12.1c0,2.9,0.1,3.6,1.3,3.6c0.2,0,0.4,0,0.6-0.1
	l0.9,3.4C173.1,83.5,171.8,83.7,170.2,83.7"/>
<path class="st1" d="M98.5,21.3v-1.1c1.5-2.1,3.4-3.8,5.8-5c2.9-1.5,5.4-2,9-2c5.1,0,10,1.7,13.7,5l-5.6,6.3c-2.1-2-5-3.1-8-3.1
	c-5.3,0-7.5,3.7-7.5,12.5c0,7.9,2.3,11.7,7,11.7c1.3,0,2.6-0.1,3.7-0.6v-6.2h-4.8l-1.1-8h16.1V50c-4.5,2.8-9.1,3.9-14.2,3.9
	c-6.3,0-10.7-1.9-14-6.2V21.3z M63.5,39.5V14.4l-11.1,1V42L63.5,39.5z M58,0c-3.6,0-6.5,2.8-6.5,6.2c0,3.4,2.9,6.2,6.3,6.2
	c3.6,0,6.4-2.8,6.4-6.2C64.3,2.8,61.5,0,58,0 M1.2,25.1v34.5h11.2V44.4l8.7,15.2h13.5L21.8,39.4l0.2-0.2c0.3-0.2,7.3-5.2,10.6-14.4
	c2.9-8.1-0.1-17.9-0.9-20.3L12.5,36V18.4L1.2,25.1z M34.6,28.4l6.8,29l22.1-5.1v-9l-13.7,3.2l-7.4-31.7L37.1,16
	c0.1,3.2-0.3,6.6-1.4,9.8C35.3,26.8,35,27.6,34.6,28.4 M171.2,52.8h10.1V14.5H172v11.8c0,2.5,0.1,6.3,0.3,8.6
	c-0.9-2.6-2.1-5.3-3.2-7.3l-7-13.1h-9.4v38.2h9.3V42c0-4.7-0.3-8.2-0.5-9.7c0.8,2.5,2,5.2,3,7.2L171.2,52.8z M85.2,59.6h10.1V21.3
	H86v11.8c0,2.5,0.1,6.3,0.3,8.6c-0.9-2.6-2.1-5.3-3.2-7.3l-7-13.1h-9.4v38.2h9.3V48.8c0-4.7-0.3-8.2-0.5-9.7c0.8,2.5,2,5.2,3,7.2
	L85.2,59.6z M149.5,51.4h-9.6v-7.8h9.6v-7.8h-9.6v-6.5h9.6v-8.1H130v38.5h19.4V51.4z"/>
</svg>
